<?xml version="1.0" encoding="utf-8"?>
<!-- Generator: Adobe Illustrator 18.1.1, SVG Export Plug-In . SVG Version: 6.00 Build 0)  -->
<svg version="1.1" id="Layer_1" xmlns="http://www.w3.org/2000/svg" xmlns:xlink="http://www.w3.org/1999/xlink" x="0px" y="0px"
	 viewBox="0 0 269.3 129" enable-background="new 0 0 269.3 129" xml:space="preserve">
<g>
	<path fill="#FFFFFF" d="M42.5,39.3l0.2-0.2c0.9-0.6,1.8-0.5,2.7,0.3l0.1,0.1l0,0.8c0.2-0.1,0.7,0.1,1.5,0.7c0,0.2,0.1,0.3,0.1,0.4
		c0.2-0.1,0.3-0.1,0.4,0.1l0.2,0.2c0.1,0.1,0,0.1,0,0.2c0.1,0.1,0.1,0.1,0.2,0c0.7,1.1,0.8,1.8,0.2,2.2l-1.6,3.6
		c-0.7,1.4-1.2,3-1.5,4.9c-0.2,0.2-0.3,0.6-0.3,1.3l0.3,0.5c2.4-1,4.4-1.8,6-2.6c0.1-0.1,0.1-0.1,0-0.2l2.9-1.5l0.2-0.3l2-1
		c0.1-0.2,0.2-0.3,0.5-0.5l0.1,0.1l0.2-0.3l0.6-0.4l0.5,0c-0.1-0.2-0.1-0.3,0.1-0.4l0.6-0.4l0,0.3c0.9-0.5,1.4-0.7,1.6-0.8
		c0.1-0.2,0.2-0.3,0.4-0.4c0.1,0.1,0.3,0.2,0.4,0.1c-0.2-0.2-0.2-0.4,0-0.5c0.2-0.1,0.3,0,0.5,0.3l0.1-0.1c-0.2-0.2-0.2-0.4,0-0.5
		l0.1-0.1l0.7-0.3l0-0.3l0.7-0.3c0.1-0.2,0.2-0.3,0.3-0.3l0.3,0.2c0-0.1,0.2-0.3,0.6-0.6l0.1,0.1l0.2-0.2l-0.2-0.2l0.8-0.5
		c0.1-0.1,0.1,0,0.2,0l0.2-0.3l0.1-0.1l0.2,0.2l0.3-0.2c-0.2-0.2,0-0.5,0.6-0.9l0.3-0.2c0.1-0.1,0.1,0,0.2,0l0.2-0.3
		c0.2,0,0.3-0.1,0.4-0.1c-0.1-0.1,0-0.1,0-0.2l0.1,0.1c0.1,0.2-0.1,0.5-0.7,1c-0.2,0-0.3,0.1-0.4,0.1c-0.2,0.4-0.4,0.6-0.6,0.8
		L65.9,43c-0.2,0.4-0.6,0.8-1,1.2c-0.2,0-0.3,0.1-0.4,0.1c-0.5,0.6-0.9,1-1.2,1.2c-0.2,0-0.3,0.1-0.4,0.1c0.1,0.2,0.1,0.3-0.1,0.4
		l-0.3-0.2l-0.2,0.3l-0.1,0.1c-0.2,0.1-0.4,0.2-0.5,0.2c-0.1,0.2-0.2,0.3-0.3,0.3c-0.1-0.1-0.1-0.1-0.2,0c0.1,0.2,0.1,0.3-0.1,0.4
		c-0.1,0.1-0.1,0-0.2,0l-0.2,0.3l-0.6,0.4l-0.2-0.2l-0.6,0.4l0.1,0.1l0.3-0.2l0.2,0.2l-0.7,0.3l0.1,0.1l-0.3,0
		c-0.1,0.1-0.2,0.3-0.1,0.4l0.1,0.1l0.2-0.3l0.5,0c0.2-0.1,0.3-0.3,0.4-0.4c0.6-0.1,1-0.2,1.3-0.4c1-0.8,1.7-1.3,2-1.5l0.1,0.1
		l0.2-0.3l0.8-0.4c-0.2-0.2,0.5-0.9,2.1-1.9c0.1,0.1,0.3,0.2,0.4,0.1c0.4-0.6,0.8-1.1,1.3-1.4l0.3,0l3.1-2.8c0.1-0.1,0.1,0,0.2,0
		c1-0.8,1.5-1.4,1.6-1.6l0.7-0.2c-0.1-0.1,0-0.4,0.3-0.7c0.3-0.1,0.4-0.1,0.5,0c0.2-0.3,0.4-0.6,0.8-0.9l2.8-1.9
		c0.2,0.3,0.4,0.4,0.5,0.3l0-0.3c-0.2,0.1-0.3,0.1-0.4-0.1c0.1-0.2,0.2-0.3,0.3-0.3l0.3,0c0.1-0.3,0.3-0.6,0.5-0.7
		c0.1-0.1,0.1,0,0.2,0l0.2-0.3l1.1-0.8c0.1-0.1,0.1,0,0.2,0c0.3-0.5,0.8-0.9,1.3-1.2l0.8,0c-0.2-0.2-0.2-0.4-0.1-0.4
		c0.1-0.1,0.1,0,0.2,0c0.6-0.7,1-1,1.1-1.1l0.8-0.4l0,0.3l0.5-0.3c-0.2-0.1-0.3-0.2-0.3-0.3l0.1-0.1l1.3-0.4l-0.2-0.2l0.2-0.2l0.5,0
		l0.3-0.2l0.2-0.5l0.3,0c0.1-0.2,0.2-0.3,0.3-0.3c0.3,0.1,0.5,0.2,0.5,0.3l0.2-0.2l-0.2-0.2c0.2-0.1,0.3-0.1,0.4,0.1l0,0.3l0.1-0.1
		l0.1-0.8c0.1,0.1,0.3,0.2,0.6,0.1l0-0.3c-0.2,0.2-0.4,0.2-0.5,0c0.1-0.2,0.2-0.3,0.3-0.3c0.3-0.1,0.6-0.2,0.9-0.4
		c-0.1-0.1,0-0.1,0-0.2c0.2-0.1,0.7-0.3,1.4-0.6c0.1-0.2,0.2-0.3,0.4-0.4c0.1,0.2,0.3,0.2,0.5,0c0.1-0.2,0.2-0.3,0.3-0.3l0.1,0.1
		l0.2-0.3l0.2-0.2l0.2,0.2l-0.6,0.6c-0.1-0.1-0.1-0.1-0.2,0l0.1,0.1c0.1,0.1,0.3,0.2,0.4,0.1c0,0,0.2-0.2,0.4-0.4
		c0.2,0,0.3-0.1,0.4-0.1c0-0.2-0.1-0.4-0.2-0.5l0.1-0.1l0.2,0.3l0.9-0.6l0.1,0.1c0,0.2,0.1,0.3,0.1,0.4l0.5-0.3l-0.4-0.8l0.3-0.2
		l0.2,0.2l0,0.3c0.9-0.5,1.4-0.6,1.5-0.5c0.3-0.4,0.4-0.6,0.3-0.7l-0.5,0l0.2,0.2l-0.6,0.4c-0.2,0.1-0.3,0.1-0.4-0.1l-0.2-0.2
		c0.6-0.4,1.3-0.7,2.2-1l0-0.3l0.7-0.3l0.2-0.3c0.4-0.1,0.6-0.1,0.7,0l0.2,0.2c-0.2,0.2-0.3,0.3-0.2,0.5l0.3-0.2l0.2,0.3
		c0.1,0.1,0,0.3-0.1,0.6l-0.7,0.3l0.5,0.2c-0.1,0.1-0.1,0.1,0,0.2l0.2-0.2l0.2-0.5c0.2,0,0.3-0.1,0.4-0.1c0-0.2-0.1-0.4-0.3-0.7
		l0.1-0.1l0.3,0l-0.2-0.2l-0.7,0.2l-0.2-0.2c0.1-0.1,0.2-0.3,0.2-0.7l0.1-0.1l1.5-0.2l0.1-0.1c-0.2-0.2-0.2-0.4,0-0.5l0.1-0.1
		c0.2-0.1,0.3-0.1,0.4,0.1c-0.2,0.2-0.3,0.3-0.2,0.5l0.1,0.1l0.2-0.5c0.1,0.1,0.3,0.2,0.4,0.1l-0.3-0.5l0.1-0.1c0.1-0.1,0.1,0,0.2,0
		c0.1-0.1,0.1-0.1,0-0.2c0.7-0.4,1.2-0.4,1.5,0l0.1-0.1c-0.2-0.3-0.2-0.5-0.1-0.6c0,0,0.6-0.3,1.6-0.9l0.2,0.2
		c0.1,0.2,0,0.3-0.2,0.5c0.1,0.1,0.3,0.2,0.6,0.1l0.1-0.1c-0.2-0.2-0.2-0.4,0-0.5l0.2-0.2c0.2-0.1,0.3-0.1,0.4,0.1l0.1,0.1
		c-0.3,0.2-0.4,0.4-0.2,0.7c0.2-0.1,0.3-0.1,0.4,0.1c0.1,0.2,0.1,0.3-0.1,0.4l-0.1,0.1l-0.2-0.3l-0.3,0.2l0.3,0.2l0.1,0.1
		c0.1,0.8,0,1.3-0.1,1.6l0.1,0.1l-0.1,0.1c-0.2,0.1-0.3,0.1-0.4-0.1l-0.2-0.2l0.2-0.2l-0.1-0.1l-0.6,0.4l0.1,0.6
		c-0.4,0.1-0.6,0.1-0.7,0l0.1-1.1c-0.6,0.1-1.1,0-1.5-0.3c-0.2,0.3-0.3,0.5-0.2,0.7c0.3-0.2,0.5-0.2,0.6-0.1l0.2,0.3l-0.2,0.2
		c-0.2-0.2-0.3-0.3-0.3-0.3c-0.1,0.2-0.2,0.3-0.3,0.3l-0.3-0.2c0.2-0.1,0.2-0.2,0.1-0.4c-1,0.8-1.5,1.3-1.3,1.5l0.5-0.2
		c0.1-0.2,0.2-0.3,0.3-0.3l0.3,0.2l0.1,0.1l-0.3,0.2l-0.3,0c0.1,0.2,0.1,0.3-0.1,0.4c-0.1-0.2-0.2-0.2-0.4-0.1
		c-0.2,0.3-0.3,0.8-0.1,1.4l0.3,0l0.2-0.2l-0.3-0.2l-0.1-0.1l0-0.3c0.4,0,0.8-0.2,1.4-0.4c0.1-0.2,0.2-0.3,0.3-0.3l0.2,0.3l-0.7,0.5
		l0.2,0.2c0.7-0.3,1.1-0.4,1.2-0.2c0.2-0.1,0.4-0.4,0.5-0.7l-0.5-0.5l-0.1-0.1c0.1-0.1,0.3,0,0.6,0.1l0,0.3l0.9-0.4
		c0.1,0.1-0.1,0.4-0.4,0.9c0.2,0.1,0.3,0.2,0.3,0.3l-0.2,0.5l-0.3-0.2c-0.1,0.1-0.1,0.1,0,0.2c-1.3,0.9-2.1,1.1-2.4,0.6l-0.2-0.3
		c-0.1,0.1-0.2,0.2-0.1,0.4c0.2,0.1,0.3,0.2,0.3,0.3c-0.1,0.1-0.1,0.1,0,0.2c-0.4,0.2-0.7,0.2-0.7,0.2c-0.1,0.3-0.3,0.6-0.6,0.8
		c0-0.1-0.2-0.2-0.5-0.3l-0.3,0.2c0.1,0.2,0,0.5-0.4,0.9l-0.5,0.3l-0.5,0l0.1,0.1l-0.3,0l-0.1,0.1c0.2,0.2,0,0.5-0.5,0.8L100,27
		l-0.2,0.3l-0.1,0.1l0-0.3l-0.2-0.2c-0.1,0.5-0.1,0.8,0.1,1.1l-0.9,0.6c-0.1,0.1-0.1,0-0.2,0c-0.2,0.2-0.2,0.4-0.2,0.5
		c-0.8,0.4-1.3,0.6-1.6,0.4c-0.1,0.3-0.3,0.6-0.5,0.7l-0.1,0.1c-0.2-0.2-0.3-0.3-0.3-0.3c-0.1,0.3-0.3,0.6-0.5,0.7l-1.1,0.8
		l-0.2,0.3l-0.2-0.2l-0.1,0.1l0.1,0.1c0.2,0.1,0.3,0.2,0.3,0.3L94,32l-0.7,0.3c-0.7,0.6-1.3,1-1.6,1.3l-0.1-0.1l-0.2,0.3
		c-2.6,2-4.6,3.5-5.8,4.3l-0.2,0.3l-0.3,0c-2.9,2.2-4.9,3.8-5.9,4.7L79,43c-0.1,0.4-1.3,1.4-3.5,2.9c0.1,0.2-2.3,2.2-7.3,6.1
		l0.1,0.1c0.7,1,0.9,1.6,0.7,1.7l0.3,0.2l0.2,0.2c0,0.8,0.2,1.8,0.5,3c0.5,2.7,0.7,4.1,0.6,4.1l0.2,0.2c2.1-1.3,3.7-2.4,4.9-3.2
		l0.1-0.1c0.2-0.1,0.3-0.3,0.4-0.4c0.2,0,0.4-0.1,0.5-0.2l0.8-0.5c0.2-0.1,0.3-0.1,0.4,0.1l0.2-0.3l0.5-0.3c0.1-0.1,0.1,0,0.2,0
		l0.2-0.3l0.2-0.2c0.4-0.3,0.9-0.7,1.5-1.2l0.3,0l0.2-0.3c0.8-0.5,1.5-0.8,1.9-1.1l0.3-0.2l0.7-0.3l0.2,0.2c-0.5,0.6-0.9,0.9-1,1
		l0.2,0.2l0.5-0.5l0.1-0.1c0.1-0.1,0.3,0,0.6,0.1l0.1,0.1l-0.2,0.2l-0.2-0.2l-0.3,0.2l0.3,0.2l-0.2,0.2c-0.4,0-0.6,0.1-0.8,0.2
		l0.3,0.2l0.1,0.1l-0.3,0.2l-0.5,0l-0.1,0.1c0.1,0.2,0.1,0.3,0,0.3c-0.2,0.1-0.9,0.7-2.2,1.7l-0.1-0.1c-0.1,0.3-0.3,0.6-0.5,0.7
		l-0.2,0.2l-0.5,0c0.1,0.1,0.1,0.2,0.1,0.4l-0.3,0c-0.1,0.2-0.2,0.3-0.3,0.3l-0.1-0.1l-0.2,0.3L78,59.3l-0.2-0.2l-0.5,0.8
		c-0.5,0.2-0.8,0.4-1,0.5c-0.1,0.3-0.3,0.6-0.5,0.7l-0.6,0.4c-0.1,0.1-0.1,0-0.2,0l-0.2,0.3l-1.1,0.8l-1.3,1.1l0.1,0.1
		c0.5-0.4,0.9-0.5,1-0.5c0.1-0.2,0.2-0.3,0.4-0.4l0.1-0.1c0.2-0.1,0.3,0,0.5,0.2l0.2-0.2c-0.1-0.1-0.1-0.3,0-0.5
		c1-0.5,1.5-0.7,1.6-0.6l0.6-0.8l0.3,0c0.1-0.2,0.2-0.3,0.3-0.3c0.1-0.1,0.1,0,0.2,0l0.5-0.5l0.6-0.4l0.2,0.2
		c0.1-0.1,0.3-0.3,0.5-0.7c1-0.6,1.9-1.1,2.5-1.5l1-0.7l0.6-0.6l0.3,0c0.1-0.1,0.1-0.1,0-0.2c0.4-0.1,0.7-0.3,0.9-0.4l0.1,0.1l0,0.3
		l0.3,0c0-0.2-0.1-0.3-0.1-0.4l0.3-0.2l0.1,0.1c0,0.2,0.1,0.3,0.1,0.4c0.2-0.1,0.3-0.1,0.4,0.1l-0.3,1.3l-1.5,1l0.2,0.2
		c0.8-0.4,1.3-0.6,1.4-0.6l0.2,0.2c-1.1,1-1.7,1.6-1.8,1.9c-0.1-0.2-0.2-0.2-0.4-0.1L83.8,60c0.1,0.2,0.3,0.2,0.5,0l0.2,0.2
		c-0.3,0.2-0.5,0.4-0.6,0.6l-0.3-0.2c0.1-0.1,0.1-0.1,0-0.2l-0.1,0.1c-0.2,0.1-0.1,0.3,0.1,0.6L83,61.4c0.1,0.2,0.1,0.3-0.1,0.4
		L82.6,62l-0.7,0.3c0.1,0.3-0.1,0.6-0.5,0.8l-0.2,0.2l-0.2-0.2l-0.2,0.2l0.3,0.2l-1.5,1.7l-0.5,0l-0.2,0.5l-2.6,1.8
		c-0.6,0.4-1.3,0.9-2.1,1.6c-0.2,0-0.4,0.1-0.7,0.3l-0.9,0.9L72.4,70l-0.7,0.7l-0.1,0.1c-0.1,0.1-0.1,0-0.2,0
		c-0.1,0.1-0.1,0.1,0,0.2l-0.5,0.2c-0.3,0.2-0.5,0.6-0.5,1.2l-0.1,0.1l-0.3,0c0.2,0.7,0.1,1.1-0.1,1.3l0.3,0.2l0.1,0.1
		c0,0.9,0,1.3-0.1,1.4c-0.1,0.1-0.1,0.6,0,1.5c-0.3,0.2-0.5,0.9-0.7,2c0.1-0.1,0.1,0,0.2,0l-0.2,0.3l-0.1,0.1l-0.2-0.2L68.9,79
		l0.3,0.5l0.1-0.1l0.2,0.2c-0.2,0.2-0.3,0.5-0.3,1l-0.3,0l-0.1,0.1c-0.1,0.3-0.2,0.5-0.3,0.5l0.2,0.2l0.2-0.3
		c0.2-0.1,0.3-0.1,0.4,0.1L69,81.8l-0.1,0.1l-0.2-0.2l-0.5,0.5l0.7,0.7l-0.2,0.2l-0.2-0.3l-0.2,0.2c0.1,0.1,0.1,0.2,0.1,0.4l0.4,0.6
		c-0.2,0-0.3,0.1-0.4,0.1c0.1,0.1-0.1,0.4-0.4,0.9l0.3,0.2c0,0.2,0.1,0.3,0.1,0.4c-0.2,0.1-0.3,0-0.5-0.2c-0.1,0.1-0.1,0.3,0,0.7
		l0.2,0.3l-0.2,0.3l-0.3,0c-0.1,0.2-0.2,0.3-0.3,0.3l-0.1-0.1l0-0.3l-0.3,0c0.3,0.6,0.3,1,0,1.2c-0.1-0.2-0.2-0.2-0.4-0.1
		c-0.1,0.1-0.2,0.3-0.1,0.6c0.1-0.1,0.1,0,0.2,0c-0.4,1.3-0.5,2-0.3,2.2l-0.5,0.3l-0.3,0c0.5,0.8,0.6,1.2,0.3,1.5
		c0.1,0.6-0.1,1.1-0.4,1.6l0.3,0.2l0.2,0.2l-0.1,0.1c-0.1,0.1-0.3,0-0.7-0.2c-0.2-0.3,0-0.7,0.5-1.2c-0.1-0.2-0.1-0.3,0-0.3
		l-0.3-0.2c0.3-0.6,0.3-1.1,0-1.5l-0.3,0c-0.1,0.2-0.2,0.3-0.4,0.4c-0.2-0.2-0.3-0.3-0.5-0.2c0.2,0.2,0.3,0.5,0.3,0.7
		c-0.2,0-0.4,0.1-0.8,0.4l-0.2-0.2l0.5-0.3c-0.1-0.4-0.1-1-0.1-1.8c-0.2,0-0.3,0.1-0.4,0.1c-0.1-0.2-0.1-0.3,0.1-0.4
		c0.1,0.1,0.1,0.1,0.2,0l-0.2-0.3l-0.3-0.2c0.2-0.2,0.3-0.5,0.3-0.8l0.3-0.2c-0.2-0.1-0.3-0.2-0.3-0.3c0.1-0.3,0.2-0.5,0.5-0.7
		l-0.3-0.2l-0.2-0.2c0.1-1.4,0.3-2.6,0.5-3.5l0.3,0c-0.2-0.3-0.2-0.5,0-0.7l-0.3-0.2c0.3-4.5,0.5-6.7,0.6-6.8c0.1,0.1,0.1,0.1,0.2,0
		c-0.2-0.3-0.2-1.5-0.1-3.6c0.1-1.7,0-2.8-0.3-3.2l-0.2,0.2c0.2,0.2,0.1,2.4-0.2,6.5l-0.2,1l-0.3,0l0,0.3l0.2-0.2l0.1,0.1L63.3,82
		l-0.1,0.1l-0.2-0.3l-0.1,0.1c0.2,0.3,0.3,0.7,0.1,1.1l0.2-0.2l0.2,0.2l-0.5,1.2l0.3,0.2l0.1,0.1c-0.4,2.9-0.6,4.5-0.8,4.5l-0.3,0
		l0.1,0.1c0.2,0.1,0.3,0.2,0.4,0.4c-0.4,0.6-0.5,1-0.3,1.2l-1.1,0.8c0.2,0.1,0.3,0.2,0.5,0.5l0.2-0.7l0.2-0.2l0.2,0.2
		c-0.2,0.2-0.3,0.6-0.3,1.2l-0.3,0l-0.1,0.1l0.1,0.1l0.2-0.2l0.1,0.1c-0.1,0.3-0.1,0.6,0,0.7l-0.2,0.2l-0.2-0.2l0-0.3l-0.3,0
		c0.1,0.1,0.1,0.2,0.1,0.4l0.6,0.6c-0.1,0.1-0.2,0.2-0.3,0.3l-0.1-0.1c0-0.2-0.1-0.3-0.1-0.4l-0.2,0.3c-0.1-0.1-0.4-0.2-1-0.2L60,94
		c0.2-0.2,0.4-0.7,0.4-1.6c0.1,0.1,0.1,0.1,0.2,0c-0.1-0.4-0.1-0.7,0.1-0.9c0.1,0.1,0.1,0.1,0.2,0c-0.1-0.2-0.2-0.5-0.1-0.9
		c0.2,0,0.3-0.1,0.4-0.1c-0.2-0.1-0.3-0.2-0.3-0.3c-0.1-0.2,0.1-1.5,0.5-4C61,85,61.1,83.9,61.6,83l0.2-2.2c-0.2-0.3-0.2-1,0.2-2
		l-0.2-0.3l0.3-0.2c-0.3-0.4-0.2-0.7,0.1-0.9l-0.3-0.2l-0.1-0.1c0.5-0.3,0.5-0.7,0.1-1.3c0.2-0.2,0.3-0.3,0.3-0.3
		c-0.2-0.1-0.3-0.2-0.3-0.3c0.3-0.2,0.4-1.1,0.2-2.7c0.3-0.2,0.4-0.3,0.4-0.4L62.2,72l-0.1-6.5c-0.3-0.4-0.3-0.8-0.1-1.3
		c-0.2-3.1-0.4-5.5-0.7-7.2l-0.2-0.2c-1.3,0.8-2,1.1-2.1,1.1c-0.1,0.1-0.1,0.1,0,0.2c-0.6,0.3-1.1,0.5-1.3,0.6l-0.2,0.3
		c-0.5,0.2-0.8,0.3-0.9,0.1l-0.2,0.3c-0.4,0.1-0.6,0-0.7,0c-0.1,0.1-0.1,0.1,0,0.2c-0.1,0.1-0.5,0.2-1.1,0.4
		c-0.1,0.2-0.2,0.3-0.3,0.3l-0.6,0.1l-0.2,0.3c-2.2,0.7-3.4,0.9-3.5,0.8l-0.2,0.3c-2.7,0.4-4.4,0.2-5-0.6c-1.4-0.7-2.5-1.5-3.3-2.3
		L41.6,58c-0.4-0.3-0.7-0.4-0.7-0.3c-0.1-0.1-0.1-0.2-0.1-0.4c-0.8-0.8-1.3-1.5-1.7-2c-0.1-0.1,0-0.1,0-0.2
		c-0.5-0.4-0.8-0.6-0.9-0.8l0.2-0.3l-0.5-0.5c-0.7-1.9-0.7-4,0.1-6.3C39,43.8,40.5,41.1,42.5,39.3z M45.4,56.2l0.1,0.1
		c0.7,0,2.8-0.8,6.2-2.2l0-0.3c-2.5,0.9-3.8,1.3-3.9,1.3c-0.1,0.2-0.2,0.3-0.3,0.3c-0.5,0-1.2,0.3-1.9,0.6L45.4,56.2z M51.7,53.5
		c0.2,0.1,0.3,0.2,0.3,0.3l0.2-0.2c0.1,0.2,2.1-1,6-3.4c0.4-0.3,0.6-0.7,0.5-1.2c-0.1,0.1-0.1,0-0.2,0l-0.8,0.9l-0.3-0.2
		c-0.1,0.2-0.2,0.3-0.3,0.3l-0.3,0l-0.2,0.3l-0.3,0l-0.2,0.3l-0.3,0c-0.1,0.2-0.2,0.3-0.4,0.4c-0.1,0.1-0.1,0-0.2,0
		c-0.1,0.2-0.2,0.3-0.3,0.3l-0.5,0.2c-0.1,0.2-0.2,0.3-0.3,0.3l-0.1-0.1l-0.2,0.3l-0.5,0.3c-0.2,0.1-0.4,0.2-0.5,0.2l-0.2,0.3
		C52.3,53.3,51.8,53.5,51.7,53.5z M60.1,95.4l0.3,0.2l-0.3,0.8l-0.1-0.1C60,95.8,60,95.6,60.1,95.4z M60.6,93.4
		c0.1,0.1,0,0.4-0.1,0.8l0.3-0.2c0.2-0.1,0.2-0.3,0-0.5l-0.1-0.1L60.6,93.4z M60.6,94.8l0.2-0.2c0,0.2,0.1,0.4,0.3,0.7l-0.2,0.2
		L60.6,94.8z M60.6,96.3l0.1-0.1c0.2,0,0.3-0.1,0.4-0.1l0.1,0.1l-0.5,0.3L60.6,96.3z M61.5,90l0.2,0.2l0.1-0.1
		c0.2-0.1,0.2-0.2,0.1-0.4L61.5,90z M61.8,86.9c0.1,0.1,0.4,0.1,0.8,0l-0.2-0.3l-0.2,0.3C62,86.8,61.8,86.9,61.8,86.9z M63.8,93.9
		l0.5,0.2l0.2,0.2l-0.5,0l-0.1,0.1l0.1,0.1l0.5,0.2l0.1,0.1c0.1,0.1-0.1,0.4-0.4,0.9c-0.4-0.4-0.7-0.5-0.8-0.5l-0.6,0.4l-0.1-0.1
		c-0.1-0.2-0.1-0.3,0.1-0.4l0.8-0.4l0.1-0.1C63.3,94.5,63.4,94.2,63.8,93.9z M62.9,93.5l0.3,0.2L63,94L62.9,94l-0.1-0.1
		C62.7,93.8,62.8,93.6,62.9,93.5z M62.9,95.7l0.2-0.2c0.1-0.1,0.4,0,0.7,0.3c0,0.2,0.1,0.3,0.1,0.4l-0.2,0.2
		c-0.2-0.2-0.3-0.3-0.5-0.2L62.9,95.7z M63.1,92.4l0.1-0.1l0.1,0.1c0.1,0.2,0.1,0.3-0.1,0.4L63,93C62.9,92.8,63,92.7,63.1,92.4z
		 M63.1,91.7l0.3-0.2c0.1,0.2,0.1,0.3-0.1,0.4L63.1,91.7z M63.6,89.2l0.4,0.6c0.2-0.1,0.2-0.2,0.1-0.4c-0.2-0.1-0.3-0.2-0.3-0.3
		L63.6,89.2z M64.2,92.3l0.5-0.3l0.2,0.3c-0.1,0.4-0.4,0.8-0.7,1l0.5,0.2c0.1,0.1,0,0.3-0.1,0.6c-0.3-0.5-0.6-0.6-0.8-0.5l-0.2-0.2
		l0.6-0.4l0.3,0l-0.1-0.1c-0.2-0.1-0.3-0.2-0.3-0.3L64.2,92.3z M63.8,44.8c0.2-0.3,0.3-0.5,0.2-0.7l-0.1,0.1
		C63.8,44.3,63.7,44.5,63.8,44.8z M63.9,85.5l0.2,0.5c0.2-0.1,0.2-0.3,0-0.5L64,85.4L63.9,85.5z M64.1,62.8l0.4,1.3
		c0.2-0.1,0.1-0.5-0.1-1.1l-0.2-0.2L64.1,62.8z M64.2,62c0.1,0.1,0.1,0.3,0.1,0.6c0.1,0.1,0.3,0.2,0.4,0.1c-0.1-0.2-0.2-0.4-0.2-0.7
		L64.2,62z M64.9,90.8l0.5-0.3l-0.2-0.2L65,90.4C64.8,90.6,64.8,90.7,64.9,90.8z M67,85.3c0.2,0.1,0.3,0.2,0.3,0.3l0.1-0.1l-0.3-0.5
		L67,85.3z M67.2,86.4l0.2,0.2l0.1-0.1l0.2-0.3c0.1,0.1,0.1,0.1,0.2,0l-0.1-0.1c-0.2-0.1-0.3-0.2-0.3-0.3L67.3,86
		C67.2,86.1,67.2,86.3,67.2,86.4z M67.6,87.3l0.1-0.1l0.1,0.1c0.1,0.1,0,0.5-0.2,1.2l-0.1-0.1C67.4,87.8,67.5,87.4,67.6,87.3z
		 M68.7,40.1c0.1-0.1,0.3,0,0.6,0.1l-0.1,0.1l-0.3,0c0.1,0.1,0,0.1,0,0.2l-0.3-0.2L68.7,40.1z M68.6,82.3l0.2-0.2l0.2,0.3l-0.2,0.2
		L68.6,82.3z M70.4,38.8l0.1-0.1c0.2-0.1,0.3-0.1,0.4,0.1L70.6,39L70.4,38.8z M72.1,37.6l0.3-0.2c0.1,0.2,0.1,0.3-0.1,0.4l-0.1,0.1
		L72.1,37.6z M74,35.7l0.6-0.4c0.1-0.1,0.1,0,0.2,0l0.2-0.3c0.1-0.1,0.3,0,0.6,0.1l-0.2,0.3l-0.1,0.1l-0.5,0l-0.1,0.1L74.4,36
		l-0.3-0.2L74,35.7z M75.7,34.5l0.1-0.1c0.2-0.1,0.3-0.1,0.4,0.1l-0.2,0.3L76,34.8L75.7,34.5z M82,32.6l0.2,0.2
		c0.1-0.2,0.2-0.3,0.3-0.3l-0.1-0.1L82,32.6z M83.8,58.7l0.4,0.6l0.1-0.1c-0.2-0.2-0.3-0.5-0.3-0.7L83.8,58.7z M84.2,56.4
		c0.1,0.1,0.1,0.2,0.1,0.4l0.3-0.2l-0.2-0.3L84.2,56.4z M87.1,29l0.2,0.2c0.3-0.2,0.5-0.2,0.7,0c0.2-0.1,0.2-0.4,0-0.8L87.1,29z
		 M87.9,29.4l0.5,0.5l0.1-0.1l-0.4-0.6L87.9,29.4z M88.2,28.9l0.1,0.1l0.5-0.3l-0.2-0.2l-0.1,0.1C88.3,28.7,88.2,28.8,88.2,28.9z
		 M88.5,27.8l0.2,0.3c0.1-0.2,0.2-0.3,0.4-0.4l-0.2-0.3l-0.1,0.1C88.6,27.7,88.5,27.8,88.5,27.8z M89.3,30.8l0.3,0.5l0.1-0.1
		c-0.1-0.2-0.2-0.3-0.2-0.5L89.3,30.8z M90.2,27.2l0.2,0.3c0.2-0.1,0.2-0.2,0.1-0.4L90.4,27L90.2,27.2z M94.6,24.7l0.2,0.2l0.1-0.1
		c0.2-0.1,0.2-0.2,0.1-0.4L94.6,24.7z M95,25.1c0.1,0.1,0.3,0.2,0.4,0.1l0-0.3L95,25.1z M95.8,24.3l0.2,0.2c0.2-0.1,0.4-0.2,0.5-0.2
		l0-0.3L96.4,24c-0.2,0.1-0.3,0.1-0.3,0C96,24.2,95.9,24.3,95.8,24.3z M96.2,28.9l0.1,0.1c0.1,0.1,0.3,0.2,0.6,0.1l0.1-0.1
		c-0.2-0.1-0.3-0.2-0.5-0.5C96.4,28.8,96.3,28.9,96.2,28.9z M96.5,23.9l0.2,0.2l0.3-0.2c-0.1-0.2-0.2-0.2-0.4-0.1L96.5,23.9z
		 M96.9,23.3l0.2,0.2c0.2-0.1,0.4-0.2,0.5-0.2l0.1-0.1l-0.1-0.1c-0.2,0.1-0.3,0.1-0.4-0.1L96.9,23.3z M98.3,19.6l0.5-0.3l0.2,0.2
		l-0.5,0.3L98.3,19.6z M98.6,23.5l0.2,0.3c0.2-0.1,0.2-0.2,0.1-0.4L98.6,23.5z M99.8,21.1l0.2,0.3l0.2-0.2l-0.1-0.1
		C100.1,21,100,21,99.8,21.1z M100.2,22.2l0.1,0.1c0.1,0.1,0.3,0.2,0.4,0.1l-0.2-0.3L100.2,22.2z M100.7,24.1l0.1,0.1
		c0.1,0.2,0.6,0.2,1.4,0.1L102,24c-0.1-0.1-0.4-0.2-1-0.2L100.7,24.1z M101.2,20.2l0.2,0.3l0.3-0.2l-0.2-0.3L101.2,20.2z
		 M101.3,22.6l0.1,0.1c0.2,0.1,0.3,0.2,0.4,0.4c-0.1,0.1-0.2,0.3-0.1,0.4l0.2,0.2l0.1-0.1c0.2-0.1,0.2-0.4,0-0.8
		C101.7,22.6,101.5,22.5,101.3,22.6z M101.9,20l0,0.3l0.1,0.1c0.1-0.2,0.2-0.3,0.5-0.5l-0.1-0.1L101.9,20z M102.2,21.9
		c0.1-0.1,0.1,0,0.2,0c0.1-0.3,0.3-0.5,0.4-0.6l-0.2-0.2l-0.3,0.2C102.2,21.4,102.1,21.6,102.2,21.9z M102.3,23.3l0,0.3l0.3-0.2
		C102.6,23.2,102.5,23.2,102.3,23.3z M102.7,20l0,0.3l0.3-0.2C103,19.9,102.9,19.9,102.7,20z M102.9,23.7l0.1,0.1
		c0.2,0.1,0.3,0.2,0.3,0.3l0.5-0.3l-0.2-0.2c-0.3,0.2-0.5,0.2-0.6,0.1L102.9,23.7z M103.8,18.9l0.3,0.2l0.2,0.2l-0.1,0.1l-0.3,0
		l0.2,0.3l0.3-0.2l0.2-0.5c0.1,0.1,0.1,0.1,0.2,0l-0.4-0.6l-0.2,0.3C104.1,18.8,103.9,18.8,103.8,18.9z M104.8,20.8l0.3,0
		c-0.1-0.1,0-0.1,0-0.2l0.3,0.2l-0.1,0.8l-0.8,0.4l-0.2-0.2C104.5,21.4,104.7,21.2,104.8,20.8z M105.1,23.4l0.7-0.3l0.1-0.1
		l-0.1-0.1c-0.2,0.2-0.4,0.2-0.5,0l-0.1,0.1C105,23.2,105,23.3,105.1,23.4z M106,18.3l0.1,0.1l0.1-0.1l-0.2-0.5
		C105.8,17.9,105.8,18.1,106,18.3z M106.5,19.4c0.2,0.1,0.3,0.2,0.3,0.3l0.1-0.1l-0.2-0.3L106.5,19.4z M107,18.9l0.2,0.2
		c0.1,0.1,0.3,0.2,0.4,0.1l0.2-0.2l-0.1-0.1c-0.1-0.1-0.3-0.2-0.6-0.1L107,18.9z M107.6,21.2l0.2-0.2l0.1,0.1l0.3,0.7
		c-0.2,0.1-0.3,0.1-0.4-0.1C107.8,21.6,107.7,21.4,107.6,21.2z M108.4,19l0.2-0.2c0.1,0.2,0.2,0.2,0.4,0.1l0.2,0.2
		c0.1,0.1,0,0.3-0.1,0.6c-0.1,0.1-0.3,0-0.6-0.1C108.5,19.3,108.5,19.1,108.4,19z M108.4,20.5c0.2,0,0.3-0.1,0.4-0.1l0.2,0.2
		l-0.5,0.3l-0.1-0.1L108.4,20.5z M108.7,17.1c0.5-0.3,0.9-0.4,1.2-0.2l0.3-0.2l0.1,0.1c0.1,0.1,0,0.3-0.2,0.7
		c-0.6,0.2-1,0.3-1.1,0.1c0.1-0.1,0.1-0.1,0-0.2c-0.2,0.2-0.4,0.2-0.5,0L108.7,17.1z M108.6,16.5c0.1-0.1,0.1,0,0.2,0l0.2-0.3
		l0.1-0.1l0.2,0.2l-0.5,0.3L108.6,16.5z M109.7,18.3c0.1,0,0.3,0.2,0.5,0.5c-0.2,0-0.3,0.1-0.4,0.1c0.1,0.2,0.1,0.3-0.1,0.4
		l-0.4-0.6C109.3,18.7,109.4,18.6,109.7,18.3z M110.4,17.9c0.2-0.1,0.3-0.1,0.4,0.1l0.5-0.5l0.3-0.2l0.3,0.5l-0.1,0.1l-0.7,0
		c0.1,0.2,0.1,0.3-0.1,0.4l-0.7,0.3l-0.1-0.1C110.3,18.2,110.3,18,110.4,17.9z M111.5,16l0.1,0.1l0.2-0.3l0.3-0.2
		c0.1,0.1,0,0.3-0.2,0.7l-0.1-0.1c-0.3,0.2-0.4,0.5-0.1,0.8c-0.4,0.1-0.7,0.3-0.9,0.4l-0.2-0.2C110.7,17.1,111,16.7,111.5,16z
		 M112.3,17l0.2-0.2l0.2,0.3l-0.5,0.3l-0.1-0.1C112.1,17.2,112.2,17.1,112.3,17z"/>
	<path fill="#FFFFFF" d="M84.3,50.2l0.1-0.1c0.2,0,0.3,0,0.3,0.2l0.6-0.4l0.3-0.1l0.1,0.2L86,50l1.4,1.3c0.5-0.2,0.9-0.1,1,0.3
		c0.9,0.6,1.8,1.3,2.7,2.2l0.2,0.5c0,1.4,0.1,3.1,0.4,5c-0.1,1,0.2,3.4,0.9,7.3c0.2,0.6,0.3,1,0.2,1.1l0.2,0.2l0.1,0.8
		c0.2-0.1,0.3,0,0.3,0c1.9-2.6,3.2-5.4,3.7-8.3c1.1-4.5,1.3-7.7,0.7-9.6c0-0.5,0-0.7,0-0.8l-0.2-0.2l-0.1-0.3c0-1.2,0-2,0.2-2.6
		c0.1-0.4,0.2-0.7,0.3-0.7l0.4-0.1c0.2-0.1,0.4-0.1,0.6,0c0.1-0.1,0.3-0.3,0.5-0.3l0.1-0.1c0.2-0.1,0.9,0.3,1.9,1.3l1,0.5
		c-0.1,0-0.1,0.1-0.1,0.2c0.5-0.2,1.4,0.7,2.8,2.6c0,0.4-0.1,1.5-0.4,3.2c0.1,4.6,0.4,8.4,0.8,11.3l0.4,1.1l0.3-0.1
		c0.4-0.5,0.8-1.2,1.4-2.4c0.8-0.5,1.2-0.9,1.4-1.1l0.2,0.2c0,0.1,0,0.2-0.1,0.2l0.2,0.2l-0.4,0.7l0,0.1l0.3-0.1l0.2,0.6
		c-0.5,1.7-1,2.7-1.4,2.8l0.2,0.5l1.8-2.2l0.2,0.2l0.2-0.2l0.1-0.1l0,0.1l0,2.2c-0.1,2.5-0.7,3.9-1.8,4.3c-1.2,0.4-3-0.1-5.3-1.7
		c-0.4-0.1-1.2-0.6-2.5-1.4c-0.7,2.5-2,4.3-3.7,5.5c-1.4,0.1-3.2-0.3-5.3-1.4c-0.1-0.2-0.9-0.5-2.6-1c-0.1-0.2-0.7-0.7-1.8-1.7
		c-0.7-1.3-1.1-2-1.2-2.2l-0.2-0.7c-1.3-3.8-1.9-6.5-1.9-8.1l-0.2-0.2l-0.6-7.7C83.7,51,83.9,50.7,84.3,50.2z M96.8,68.2
		c0.1,0.3,0,0.4-0.3,0.5l0,0.1l0.4-0.1c0-0.1,0-0.2,0-0.4l0-0.1L96.8,68.2z"/>
	<path fill="#FFFFFF" d="M102.6,4.4c0.1,0,0.1,0,0.2,0.1l0.6-0.4l0.1-0.1c0.7,0,1.3,0.1,1.9,0.5L105.4,5c0.8-0.1,1.9,0.4,3.3,1.5
		c0,0.2,0,0.4,0,0.4c0.6,0.2,1.1,0.7,1.5,1.6l0.2,0.5c-0.2,0.1,0,1.5,0.8,4.1c0.1,1.9,0.5,3.9,1.1,6.2c0.2,0.1,0.3,0.3,0.4,0.4
		c-0.3,1.5-0.3,2.6,0,3.4c-0.1,0.7,0,1.4,0.2,2.1c-0.3,0.2-0.3,1.2,0.2,3.1l-0.1,0.1l0.2,0.2c0.4,1.8,0.4,2.9,0,3.3
		c0.3,0.2,0.5,0.4,0.6,0.6c0.1,0.6,0,0.9-0.3,1l0.4,0.6c-0.2,0.1-0.2,0.4,0,0.9c0.2,0.1,0.3,0.2,0.3,0.3c-0.1,0.1-0.1,1.1,0.1,3.2
		c-0.1,0.9,0,1.6,0.3,2.3c1.2-2,1.8-3,1.8-3c1-1.5,2.6-2.7,4.7-3.7c2.5-1.2,5.2-0.3,8.1,2.7l0.2,0.4c0.4-0.2,1.1,0.7,2,2.7l0.1,0.1
		c0.1,3.2-0.6,6.4-2.1,9.7c-0.3,1.3-1.1,3.1-2.6,5.4c-0.7,1.5-1.5,2.5-2.6,3c-1,0.5-1.9,0.4-2.5-0.2l-0.1-0.1c0-0.3,0.6-1.1,1.9-2.5
		c1.6-3.1,2.6-5.3,3-6.4l0.5-2.8l-0.1,0.1c-1.2,3.8-2.2,6.3-3,7.5c-0.9,1.8-1.9,3.1-3,3.8c-0.4,0.2-1.1,0.1-2-0.3
		c-0.2-0.4,0.4-1.1,1.7-2.3l1.9-3.2c-0.1,0-0.1,0-0.2-0.1c0.7-1.5,1-2.4,1-2.6c1.1-2.5,1.7-4.9,1.8-7.1c0.1-1.5,0.1-2.4,0-2.7
		l-0.3,0.1c-1.9,1.4-3,2.7-3.3,3.8c-0.7,1.4-1,2.1-0.9,2.4c-0.1,0-0.5,1-1.2,3c-0.5,1.6-0.9,3.5-1.2,5.7l-0.9,4.7
		c0.1,0.3,0.2,0.8,0.1,1.5l0.2,0.2c0.1,1.9,0,2.8-0.2,3l-0.5,0.2c-1-0.1-2.4-0.4-4.2-1.1l-0.1-0.1l-0.2-0.7l-0.2,0.2l-0.1,0.1
		c-1.1-0.1-1.7-0.5-2.1-1.2c-0.1,0-0.1,0-0.2-0.1l-0.1-0.1c0.2-0.7,0.2-1.6,0.1-2.8c0.3-0.1,0.2-2.1-0.3-6c-0.1-0.2-0.3-2.7-0.8-7.4
		c-0.1,0-0.1,0-0.2-0.1c0.2-0.1,0-1.6-0.4-4.5c-0.2-0.4-0.2-0.7,0.1-0.8l-0.2-0.2l-1.2-8.9c0-1.9-0.6-6.6-1.8-14l-0.8-4.1l-0.2-0.2
		c-0.1-0.9-0.5-2.8-1.2-5.7c0.1,0,0.1-0.1,0.1-0.2l-0.6-1.3C102.5,4.6,102.5,4.5,102.6,4.4z M115.2,46.1l0.1,0.1
		c0.1,0.2,0.2,0.2,0.4,0.1l-0.1-0.6C115.4,45.9,115.3,46,115.2,46.1z M115.7,44.5l0.2,0.4c0.9-2,1.8-4,2.8-5.9l-0.1-0.1
		C117.6,40.2,116.6,42,115.7,44.5z"/>
	<path fill="#FFFFFF" d="M135.2,25.8l0.1,0c0.2,0,0.3,0.1,0.3,0.3l0.7-0.3l0.3,0l0,0.3l0.3-0.2l1.2,1.5c0.6-0.1,0.9,0,0.9,0.4
		c0.8,0.7,1.6,1.6,2.3,2.6l0.1,0.5c-0.2,1.4-0.4,3.1-0.4,5c-0.2,1-0.3,3.4-0.2,7.4c0.1,0.6,0.1,1,0,1.1l0.2,0.3l0,0.8
		c0.2,0,0.3,0,0.3,0.1c2.3-2.3,4-4.9,5-7.6c1.8-4.3,2.5-7.4,2.2-9.4c0-0.5,0.1-0.7,0.2-0.8l-0.2-0.2l-0.1-0.3c0.2-1.2,0.4-2,0.6-2.5
		c0.2-0.4,0.3-0.6,0.4-0.6l0.4-0.1c0.2,0,0.4,0,0.6,0.1c0.2-0.1,0.3-0.2,0.5-0.2l0.1,0c0.2,0,0.8,0.5,1.7,1.5l0.9,0.7
		c-0.1,0-0.1,0.1-0.1,0.1c0.5-0.1,1.3,0.9,2.3,3c0,0.4-0.3,1.5-0.9,3.1c-0.6,4.6-0.9,8.3-1,11.3l0.2,1.1l0.3-0.1
		c0.5-0.4,1-1.1,1.7-2.1c0.8-0.4,1.3-0.7,1.5-0.9l0.2,0.3c0,0.1,0,0.1-0.1,0.2l0.2,0.2l-0.5,0.6l0,0.1l0.3,0l0.1,0.7
		c-0.8,1.6-1.4,2.5-1.8,2.6l0.1,0.6l2.1-1.9l0.2,0.2l0.3-0.2l0.1,0l0,0.1l-0.3,2.2c-0.4,2.4-1.3,3.7-2.4,3.9c-1.3,0.2-3-0.6-5-2.5
		c-0.3-0.1-1.1-0.7-2.3-1.8c-1.1,2.4-2.6,4-4.5,4.8c-1.4-0.1-3.1-0.8-5-2.2c0-0.2-0.8-0.7-2.4-1.4c0-0.2-0.5-0.8-1.5-2
		c-0.5-1.4-0.8-2.2-0.8-2.4l-0.1-0.7c-0.7-3.9-0.9-6.7-0.6-8.3l-0.2-0.3l0.6-7.7C134.5,26.5,134.7,26.2,135.2,25.8z M144.7,45.6
		c0.1,0.3-0.1,0.4-0.3,0.5l0,0.1l0.4-0.1c0-0.1,0-0.2,0.1-0.4l0-0.1L144.7,45.6z"/>
	<path fill="#FFFFFF" d="M162.3,17.2l1.6,0.5c0.1,0.3,0.5,0.6,1.3,0.9c0,0.1,0.5,0.6,1.3,1.3c0.7,0.8,1,1.3,1.1,1.5
		c-0.8,3.1-1.2,5.8-1.1,7.9c-0.1,0.5-0.2,1.9-0.3,4.2c-0.2,0-0.2,1.4-0.3,4l-0.1,0l0.2,0.2c-0.2,0.4-0.1,0.9,0.1,1.6
		c0.1,0,0.1,0,0.2,0.1l0.2-0.2c0.1,0,0.1,0,0.2,0.1c2.3-1.7,3.6-2.7,4.1-2.8l0,0.1c0,1-0.4,1.9-1.3,2.8c-0.5,0.2-0.7,0.4-0.6,0.6
		l0,0.1c0.2-0.1,0.4-0.1,0.4,0l0.2-0.2l1.2-0.4l0.3-0.3l0.2-0.1l0.1,0.2l-0.3-0.1l0,0.1l0.3,0.3c-0.1,0-0.2,0.3-0.4,0.9
		c-0.1-0.1-0.2-0.2-0.2-0.3l-0.1,0c0.2,0.6,0,1.1-0.5,1.5c0.1,0.4-0.2,0.7-0.8,0.9c0.1,0.2-0.5,0.6-1.7,1c-0.7,0.2-2.1-0.2-4.1-1.3
		c-1.8-0.8-2.9-1.9-3.3-3.3l-0.2-0.7c-0.4-1.5-0.6-4.1-0.4-7.7c0-3.7,0.4-7.7,1.1-12.1c-0.1,0-0.1,0-0.1-0.1
		c0.2-0.3,0.4-0.5,0.5-0.5c0.2,0,0.3,0.1,0.4,0C161.5,17.9,161.7,17.6,162.3,17.2z M163.7,0c0.6-0.2,1.1,0.3,1.6,1.3l0.1,0.2
		c1.1-0.3,1.8,0.2,2.2,1.6c0.1,0,0.3,0.2,0.6,0.7c0.1,0.4,0.1,1.4-0.1,2.9l0,0.1l0.2,0.2c-0.1,0-0.3,1-0.5,3
		c-0.2,0.4-0.5,0.7-0.8,0.7c-0.7,0.2-2-0.3-3.7-1.4l0-0.3c-0.2,0.1-0.9-0.4-2.3-1.5l-0.7-1c-0.3-2.6-0.4-3.9-0.2-3.9
		c0.4-0.4,1-0.8,1.7-1.2c0,0.1,0.4,0.3,1,0.5c0.3-0.4,0.4-1,0.3-1.8C163.4,0.3,163.6,0.2,163.7,0z M162.8,1l0.2-0.1l0.1,0.4
		l-0.2,0.1L162.8,1z"/>
	<path fill="#FFFFFF" d="M171.2,12.2c0.3,0.1,0.4,0.2,0.4,0.3c0,0,0.2,0,0.6-0.2c1.1-0.1,1.7,0.4,2,1.4c0.7,1.1,2.2,1.6,4.4,1.5
		c0,0.1,0,0.1,0.1,0.1c0.2-0.1,0.4-0.2,0.6-0.2l0,0.1c0.2-0.1,0.3-0.1,0.4-0.2c1.1,0,3.9-0.3,8.4-0.8l2.1-0.1
		c1.8,0.2,2.7,0.5,2.7,1.1l0.1,0l0,0.4c0,0.2,0.1,0.5,0.3,0.8l-0.1,0.7c0.2,0,0.3,0.1,0.3,0.4c-0.1,0.2-0.1,0.3-0.1,0.4l0.3,0.1
		l-0.1,1l0,0.8c0,0.1-0.1,0.1-0.1,0.1l0.2,0.3l-0.1,0.8l0.1,0.3c0.1,1.1-0.7,2-2.4,2.7c-0.2,0.3-1.4,1.1-3.6,2.4l-3.4,2.4
		c-0.6,0.5-0.9,0.7-0.9,0.9c-1.1,0.6-1.6,0.9-1.6,1l0,0.1c0.7,0.2,1.2,0.2,1.4,0.2c0.3,0,0.4-0.1,0.4-0.2l0.6,0.1
		c1.6-0.1,3.2-0.1,4.7,0.1c0.2-0.1,0.3-0.2,0.4-0.2l0.3,0.1l0.3-0.2c1.2,0,1.8,0.1,1.8,0.3c-0.1,0-0.1,0.1-0.1,0.2l0.4,0l0-0.3
		c0.3,0,0.7,0.1,1.3,0.4l0,0.3l-1,0l0.2,0.2l0,0.1c-0.1,0-0.3,0.1-0.5,0.3c-0.1,0-0.1,0-0.2-0.1l-1.6,0.3l0-0.1l-0.9,0.3l-0.3-0.1
		c-0.3,0.2-0.5,0.3-0.7,0.3l0-0.1l-0.3,0.1l-0.8-0.4l-0.4,0.3l-0.3,0c-0.1,0-0.1,0-0.1-0.1l-0.3,0.1l-0.1,0c-0.3,0-0.4,0-0.4-0.1
		c-0.1,0-0.2,0.1-0.4,0.2c-1-0.1-1.9-0.1-2.6,0l-0.8,0l-0.3-0.1l-0.1,0.3l0.6,0.1l0.4,0c0.4,0.1,0.6,0.2,0.6,0.3l0.3-0.2
		c0.2,0,0.3,0.1,0.3,0.3l0.3-0.1l1.4-0.1l0,0.4l0.1,0c0-0.3,0.4-0.4,1.1-0.5c0,0.1,0.5,0.3,1.5,0.5l0.1-0.3c0.7,0.1,1.2,0.1,1.4,0.2
		c0-0.2,0.1-0.3,0.3-0.3l0.1,0.3c-0.1,0-0.1,0-0.1,0.1c0.7-0.1,1.1-0.2,1.4-0.3l1.1,0.4c0.2-0.1,0.3-0.2,0.4-0.2l0.1,0.3
		c-0.1,0.1-0.4,0.2-0.7,0.2c0.1,0.8,0.5,1.2,1.2,1.2l0,0.1l-0.5,0.2c-0.2-0.1-0.3-0.1-0.4-0.1l-0.7,0.6c0.1,0,0.2,0,0.2,0.1l0.2-0.2
		c0.2,0,0.3,0.1,0.3,0.3c-1.7,0.2-2.5,0.5-2.5,1l-0.1,0l-0.4-0.3c0,0.2-0.3,0.3-1,0.3l0,0.1l0.4,0l0,0.3c-0.6,0.4-2.2,0.8-4.8,1.2
		c-1.3,0.1-1.9,0.2-1.9,0.4l-1-0.1l-1.1,0c-0.3,0-0.4,0.1-0.4,0.2l-0.7-0.1l-0.8,0c-2.8,0.1-4.5-0.3-5.2-1.4c-0.1,0-0.6-0.9-1.4-2.7
		c-0.2,0-0.3-0.1-0.3-0.3l0.1-0.3c-0.3-0.9-0.5-1.4-0.5-1.6l0.1-0.6c-0.3-0.5-0.5-0.9-0.5-1.4l0-0.8c1-1.3,2.5-2.6,4.5-3.8
		c0,0,0.2-0.1,0.6-0.2c0,0.1,0,0.1,0.1,0.1c0-0.1,0.1-0.1,0.1-0.1c0,0.1,0,0.1,0.1,0.1l0-0.2l-0.3,0c0.4-0.4,0.9-0.8,1.7-1.3
		c0.2,0,1.1-0.7,2.5-1.9l0.1,0l0-0.2l-0.4,0c-3.3,0.2-5.7-1.1-7.3-3.8c-0.6-1.2-1.1-2.9-1.6-5.1c-0.1,0-0.1,0-0.2-0.1
		C170.4,12.9,170.7,12.3,171.2,12.2z M174.2,29.9l0,0.1l0.1,0c0.5-0.3,1-0.7,1.6-1.2l0-0.3c-0.7,0.4-1.1,0.7-1.1,0.9
		C174.4,29.6,174.1,29.7,174.2,29.9z M180.2,25.3l-0.3,0l0-0.3l-0.1,0l0,0.3c0.1,0,0.1,0.1,0.1,0.1c-1.4,0.9-2.7,1.9-3.9,3.1l0,0.1
		l0.1,0c0.7-0.6,1.9-1.4,3.6-2.5l4.7-3.3l-0.1,0C183.8,22.9,182.4,23.7,180.2,25.3z M192.4,34.7l0.1,0l0.3,0.1
		c-0.1,0.2-0.1,0.3-0.1,0.4l-0.3,0L192.4,34.7z"/>
	<path fill="#FFFFFF" d="M197.1,6.7c0.3,0.1,0.4,0.2,0.4,0.3c0,0,0.2,0,0.6-0.1c1.1,0,1.7,0.6,1.9,1.6c0.6,1.1,2,1.7,4.2,1.8
		c0,0.1,0,0.1,0.1,0.2c0.2-0.1,0.4-0.1,0.6-0.1l0,0.1c0.2-0.1,0.3-0.1,0.4-0.1c1.1,0.1,3.9,0,8.5-0.1l2.1,0.1
		c1.7,0.3,2.6,0.8,2.6,1.4l0.1,0l0,0.4c0,0.2,0.1,0.5,0.2,0.8l-0.2,0.7c0.2,0,0.3,0.1,0.3,0.4c-0.1,0.2-0.2,0.3-0.2,0.4l0.3,0.1
		l-0.2,1l0,0.8c0,0.1-0.1,0.1-0.2,0.1l0.1,0.3l-0.2,0.8l0.1,0.3c0,1.1-0.9,2-2.6,2.5c-0.2,0.3-1.5,1-3.8,2.1l-3.6,2.1
		c-0.7,0.4-1,0.7-1,0.8c-1.1,0.5-1.7,0.8-1.7,0.9l0,0.1c0.7,0.2,1.2,0.3,1.4,0.3c0.3,0,0.4,0,0.4-0.1l0.5,0.2
		c1.6,0.1,3.2,0.2,4.7,0.5c0.2-0.1,0.3-0.1,0.4-0.1l0.3,0.1l0.3-0.1c1.2,0.1,1.8,0.3,1.8,0.5c-0.1,0-0.1,0.1-0.2,0.2l0.4,0l0-0.3
		c0.3,0,0.7,0.2,1.2,0.5l0,0.3l-1,0l0.1,0.3l0,0.1c-0.1,0-0.3,0.1-0.6,0.2c-0.1,0-0.1,0-0.2-0.1l-1.7,0.2l0-0.1l-0.9,0.2l-0.3-0.1
		c-0.3,0.2-0.5,0.3-0.7,0.2l0-0.1l-0.3,0.1l-0.8-0.5l-0.4,0.3l-0.3,0c-0.1,0-0.1-0.1-0.1-0.2l-0.3,0.1l-0.1,0
		c-0.3,0-0.4-0.1-0.4-0.2c-0.1,0-0.2,0-0.4,0.1c-1-0.1-1.9-0.2-2.6-0.3l-0.8,0l-0.3-0.1l-0.1,0.3l0.5,0.2l0.4,0
		c0.4,0.1,0.5,0.2,0.5,0.3l0.3-0.1c0.2,0,0.3,0.1,0.2,0.3l0.3-0.1l1.4,0.1l0,0.4l0.1,0c0-0.3,0.4-0.4,1.1-0.4c0,0.1,0.5,0.3,1.5,0.6
		l0.2-0.3c0.7,0.1,1.2,0.2,1.4,0.3c0-0.2,0.1-0.3,0.3-0.3l0.1,0.3c-0.1,0-0.1,0-0.1,0.1c0.7,0,1.2-0.1,1.4-0.2l1.1,0.5
		c0.2-0.1,0.3-0.1,0.4-0.1l0.1,0.3c-0.2,0.1-0.4,0.1-0.7,0.1c0,0.8,0.4,1.3,1,1.3l0,0.1l-0.5,0.1c-0.2-0.1-0.3-0.1-0.4-0.2l-0.7,0.5
		c0.1,0,0.1,0.1,0.2,0.2l0.3-0.1c0.2,0,0.3,0.1,0.3,0.3c-1.7,0.1-2.5,0.3-2.6,0.7l-0.1,0l-0.4-0.3c0,0.2-0.3,0.3-1,0.2l0,0.1l0.4,0
		l0,0.3c-0.7,0.3-2.3,0.6-4.9,0.8c-1.3,0-1.9,0-1.9,0.2l-1-0.2l-1.1-0.1c-0.3,0-0.4,0-0.4,0.1l-0.7-0.2l-0.8-0.1
		c-2.8-0.1-4.5-0.7-5-1.9c-0.1,0-0.5-0.9-1.1-2.8c-0.2,0-0.3-0.1-0.2-0.3l0.1-0.3c-0.2-0.9-0.4-1.4-0.4-1.7l0.2-0.5
		c-0.3-0.5-0.4-1-0.4-1.4l0-0.8c1.1-1.2,2.7-2.4,4.9-3.4c0,0,0.2-0.1,0.6-0.1c0,0.1,0,0.1,0.1,0.2c0-0.1,0.1-0.1,0.2-0.1
		c0,0.1,0,0.1,0.1,0.1l0-0.2l-0.2,0c0.4-0.4,1-0.7,1.8-1.2c0.2,0,1.1-0.6,2.7-1.7l0.1,0l0-0.2l-0.4,0c-3.3-0.1-5.6-1.6-6.9-4.4
		c-0.5-1.2-0.9-3-1.2-5.2c-0.1,0-0.1,0-0.2-0.1C196.2,7.3,196.6,6.7,197.1,6.7z M198.4,24.6l0,0.1l0.1,0c0.5-0.3,1.1-0.6,1.7-1
		l0-0.3c-0.8,0.3-1.1,0.6-1.1,0.8C198.7,24.3,198.4,24.4,198.4,24.6z M204.8,20.5l-0.3,0l0-0.3l-0.1,0l0,0.3c0.1,0,0.1,0.1,0.1,0.2
		c-1.5,0.7-2.9,1.6-4.1,2.7l0,0.1l0.1,0c0.7-0.5,2-1.3,3.8-2.2l5-2.9l-0.1,0C208.7,18.4,207.2,19.1,204.8,20.5z M216.2,31l0.1,0
		l0.3,0.2c-0.1,0.2-0.1,0.3-0.2,0.4l-0.3,0L216.2,31z"/>
</g>
<g>
	<path fill-rule="evenodd" clip-rule="evenodd" fill="#E9C20C" d="M85.4,88.1c-0.4,0.1,0.4-0.4,0.6-0.5
		C86.4,87.5,85.6,88.1,85.4,88.1z"/>
	<path fill-rule="evenodd" clip-rule="evenodd" fill="#E9C20C" d="M40.7,89c-0.2-0.4,0.5,0.3,0.6,0.5C41.5,89.9,40.8,89.2,40.7,89z"
		/>
	<path fill-rule="evenodd" clip-rule="evenodd" fill="#E9C20C" d="M82.2,90.4c0.1-0.3,1.3-0.9,1.4-0.7C83,90.1,82.4,90.5,82.2,90.4z
		"/>
	<path fill-rule="evenodd" clip-rule="evenodd" fill="#E9C20C" d="M37.9,86C39.9,87.9,36.3,84.8,37.9,86L37.9,86z"/>
	<path fill-rule="evenodd" clip-rule="evenodd" fill="#E9C20C" d="M104,79.9c-0.4,0.1,0.4-0.4,0.6-0.5C105,79.3,104.2,79.9,104,79.9
		z"/>
	<path fill-rule="evenodd" clip-rule="evenodd" fill="#E9C20C" d="M37.8,87.1c-0.2-0.4,0.5,0.3,0.6,0.5C38.6,88,37.9,87.3,37.8,87.1
		z"/>
	<path fill-rule="evenodd" clip-rule="evenodd" fill="#E9C20C" d="M32.4,81.2c-0.2-0.4,0.5,0.3,0.6,0.5C33.2,82,32.5,81.4,32.4,81.2
		z"/>
	<path fill-rule="evenodd" clip-rule="evenodd" fill="#E9C20C" d="M165,54.2c0.1-0.2,0.7-0.3,0.7-0.3C165.7,54.2,165,54.3,165,54.2z
		"/>
	<path fill-rule="evenodd" clip-rule="evenodd" fill="#E9C20C" d="M31.2,80.1c0.2,0,0.6,0.5,0.6,0.6C31.5,80.7,31.1,80.1,31.2,80.1z
		"/>
	<path fill-rule="evenodd" clip-rule="evenodd" fill="#E9C20C" d="M144,62.7c0.4-0.7,1.1-0.1,0.9,0.1
		C144.5,63.5,143.9,62.9,144,62.7z"/>
	<path fill-rule="evenodd" clip-rule="evenodd" fill="#E9C20C" d="M29.9,79c0.9,1.1-0.1,0.3-0.3,0.3c-1-1-1-1.4-2.1-2.4
		C27.4,76.2,30,79.7,29.9,79z"/>
	<path fill-rule="evenodd" clip-rule="evenodd" fill="#E9C20C" d="M35.6,85.8c0.3,0,1.1,1.1,1,1.2C36.1,86.6,35.5,86.1,35.6,85.8z"
		/>
	<path fill-rule="evenodd" clip-rule="evenodd" fill="#E9C20C" d="M28.9,78.9l-0.6,0.5c-1.1-1.3-3.6-4.8-4-3.9
		c-0.7-0.9-0.7-1.4-0.5-1.8c0.5,0.4,1.2,1.1,2.1,2c0.4,0.4,0.9,0.9,1.4,1.5C27.8,77.7,28.4,78.3,28.9,78.9z"/>
	<path fill-rule="evenodd" clip-rule="evenodd" fill="#E9C20C" d="M32.4,83.3c0.1-0.1,0.7,0.7,1.2,1.1
		C33.4,84.5,32.8,83.7,32.4,83.3z"/>
	<path fill-rule="evenodd" clip-rule="evenodd" fill="#E9C20C" d="M35.1,86.2c0.6,0.7,0.2,0.7,0.1,0.9c-0.5-0.6-1-1.2-1.5-1.8
		C34,85.4,34.8,86.2,35.1,86.2z"/>
	<path fill-rule="evenodd" clip-rule="evenodd" fill="#E9C20C" d="M36.8,88.9c0.2,0,0.6,0.6,0.5,0.6C37.1,89.5,36.8,89,36.8,88.9z"
		/>
	<path fill-rule="evenodd" clip-rule="evenodd" fill="#E9C20C" d="M107.6,80.2c0.8-0.3,0.6,0,1.5-0.4
		C109,80.4,106.9,80.9,107.6,80.2z"/>
	<path fill-rule="evenodd" clip-rule="evenodd" fill="#E9C20C" d="M31.7,82.8c1,1.4-0.6,0.5-2.1-1.4c0.2,0,0.6,0.3,1,0.7
		C31.1,82.5,31.5,82.8,31.7,82.8z"/>
	<path fill-rule="evenodd" clip-rule="evenodd" fill="#E9C20C" d="M243.6,38.6c0.2-0.2,0.8-0.1,0.8,0
		C244.2,38.7,243.6,38.6,243.6,38.6z"/>
	<path fill-rule="evenodd" clip-rule="evenodd" fill="#E9C20C" d="M32.4,84.3c0.2,0,0.6,0.5,0.5,0.6C32.7,84.9,32.3,84.4,32.4,84.3z
		"/>
	<path fill-rule="evenodd" clip-rule="evenodd" fill="#E9C20C" d="M34.5,86.7c1,0.9,0.6,0.6,0.1,0.2C34.2,86.6,33.7,86.2,34.5,86.7z
		"/>
	<path fill-rule="evenodd" clip-rule="evenodd" fill="#E9C20C" d="M248.4,39c-0.4-0.1,0.6-0.2,0.8-0.1C249.7,39,248.7,39,248.4,39z"
		/>
	<path fill-rule="evenodd" clip-rule="evenodd" fill="#E9C20C" d="M148.6,63.5c0-0.2,1.3-0.6,2.1-1
		C150.6,62.7,149.4,63.1,148.6,63.5z"/>
	<path fill-rule="evenodd" clip-rule="evenodd" fill="#E9C20C" d="M20.9,74.6c-0.4,0.4-3.6-1.9,0.5,1.8c-0.2,0.2-1.7-1.3-1.6-0.6
		c-0.7-0.7-1-1.2-0.8-1.4c-1.5-1.3-2.2-2.1-2.9-2.7c-0.6-0.7-1.1-1.3-2.1-2.2c-0.3-0.6,3,2.2,2.4,2C17.6,72,18.6,72.3,20.9,74.6z"/>
	<path fill-rule="evenodd" clip-rule="evenodd" fill="#E9C20C" d="M49.2,117.8c-0.4,0.2,0.3-0.6,0.5-0.7
		C50.1,116.9,49.4,117.6,49.2,117.8z"/>
	<path fill-rule="evenodd" clip-rule="evenodd" fill="#E9C20C" d="M26.6,81.1c-0.2-0.3,0.5,0.3,0.7,0.5
		C27.4,81.9,26.7,81.3,26.6,81.1z"/>
	<path fill-rule="evenodd" clip-rule="evenodd" fill="#E9C20C" d="M23.2,79c1.3,1.4-0.4,0.5-1.4-0.8C22.1,78.2,22.9,79,23.2,79z"/>
	<path fill-rule="evenodd" clip-rule="evenodd" fill="#E9C20C" d="M18.9,75.5c-0.2-0.3,0.5,0.2,0.7,0.4
		C19.9,76.3,19.1,75.7,18.9,75.5z"/>
	<path fill-rule="evenodd" clip-rule="evenodd" fill="#E9C20C" d="M4.1,64.3c0.2-0.1,1.3,0.7,2,1.2C5.9,65.6,4.9,64.8,4.1,64.3z"/>
	<path fill-rule="evenodd" clip-rule="evenodd" fill="#E9C20C" d="M11.6,69.8c-0.1,0.4-0.8,0-2.1-1.1C10.2,69.1,10,68.4,11.6,69.8z"
		/>
	<path fill-rule="evenodd" clip-rule="evenodd" fill="#E9C20C" d="M11,74.2c-0.2-0.3,0.5,0.2,0.7,0.4C11.9,74.8,11.1,74.3,11,74.2z"
		/>
	<path fill-rule="evenodd" clip-rule="evenodd" fill="#E9C20C" d="M150.6,70.6c0.1-0.2,0.7-0.4,0.7-0.3
		C151.2,70.5,150.6,70.7,150.6,70.6z"/>
	<path fill-rule="evenodd" clip-rule="evenodd" fill="#E9C20C" d="M153.4,69.4c0.5-0.8,1.5-0.4,2.2-0.7c-0.1,0.2-0.7,0.4-0.6,0.6
		l-1.4,0.6C153.4,69.7,154.7,69,153.4,69.4z"/>
	<path fill-rule="evenodd" clip-rule="evenodd" fill="#E9C20C" d="M160.5,66.5c2.5-0.9-1.6,1.2,0.9,0.3c-0.4,0.3-1.6,0.8-1.3,1
		C158.1,68.3,160.2,66.9,160.5,66.5z"/>
	<path fill-rule="evenodd" clip-rule="evenodd" fill="#E9C20C" d="M169.9,63.4c-0.4,0.1,0.5-0.4,0.7-0.4
		C171,62.9,170.2,63.3,169.9,63.4z"/>
	<path fill-rule="evenodd" clip-rule="evenodd" fill="#E9C20C" d="M248,47.7c-0.4-0.1,0.5-0.2,0.7-0.1
		C249.1,47.7,248.2,47.7,248,47.7z"/>
	<path fill-rule="evenodd" clip-rule="evenodd" fill="#E9C20C" d="M141,75.4c-0.5,0.5-2.1,1.3-4.1,2.1c-3.1,1.3-0.2-0.2,1.3-0.8
		C139.6,76.1,139.4,75.7,141,75.4z"/>
	<path fill-rule="evenodd" clip-rule="evenodd" fill="#E9C20C" d="M67.7,113.2c-0.4,0.1,0.4-0.5,0.6-0.5
		C68.7,112.5,67.9,113.1,67.7,113.2z"/>
	<path fill-rule="evenodd" clip-rule="evenodd" fill="#E9C20C" d="M155.3,69.9c-0.4,0.1,0.4-0.4,0.7-0.4
		C156.3,69.4,155.5,69.9,155.3,69.9z"/>
	<path fill-rule="evenodd" clip-rule="evenodd" fill="#E9C20C" d="M222.2,50.2c0.4-0.3,0.8-0.1,0.8,0
		C222.6,50.5,222.2,50.3,222.2,50.2z"/>
	<path fill-rule="evenodd" clip-rule="evenodd" fill="#E9C20C" d="M116.9,87.2c-0.4,0.1,0.4-0.4,0.6-0.5
		C117.9,86.6,117.1,87.1,116.9,87.2z"/>
	<path fill-rule="evenodd" clip-rule="evenodd" fill="#E9C20C" d="M198.6,55.6c1.3-0.3,1.7-0.2,1.6,0.2c-1.8,0.6-3.9,1.3-3.8,0.5
		C197.5,56,198.5,55.8,198.6,55.6z"/>
	<path fill-rule="evenodd" clip-rule="evenodd" fill="#E9C20C" d="M242.1,48.5c-0.4-0.1,0.5-0.2,0.7-0.2
		C243.2,48.5,242.3,48.6,242.1,48.5z"/>
	<path fill-rule="evenodd" clip-rule="evenodd" fill="#E9C20C" d="M219.3,51.5c-0.4,0,0.5-0.3,0.7-0.3
		C220.4,51.2,219.5,51.5,219.3,51.5z"/>
	<path fill-rule="evenodd" clip-rule="evenodd" fill="#E9C20C" d="M95.4,98.7c0-0.2,0.6-0.4,0.7-0.4C96,98.6,95.4,98.8,95.4,98.7z"
		/>
	<path fill-rule="evenodd" clip-rule="evenodd" fill="#E9C20C" d="M106.3,93.2c0-0.2,0.6-0.4,0.7-0.3
		C106.9,93.1,106.3,93.3,106.3,93.2z"/>
	<path fill-rule="evenodd" clip-rule="evenodd" fill="#E9C20C" d="M113.8,89.5c0.1-0.2,0.7-0.4,0.7-0.3
		C114.5,89.4,113.9,89.6,113.8,89.5z"/>
	<path fill-rule="evenodd" clip-rule="evenodd" fill="#E9C20C" d="M219.4,51.8c0.3-0.3,0.6-0.1,1.5-0.3
		C220.7,51.7,219.4,51.9,219.4,51.8z"/>
	<path fill-rule="evenodd" clip-rule="evenodd" fill="#E9C20C" d="M82.8,105.9c-0.1-0.1,0.8-0.6,1.3-0.9
		C84.2,105.2,83.3,105.6,82.8,105.9z"/>
	<path fill-rule="evenodd" clip-rule="evenodd" fill="#E9C20C" d="M190.2,59.1c-0.4,0,0.5-0.3,0.7-0.4
		C191.3,58.7,190.4,59.1,190.2,59.1z"/>
	<path fill-rule="evenodd" clip-rule="evenodd" fill="#E9C20C" d="M31.6,100.6c-0.2-0.4,0.5,0.3,0.6,0.5
		C32.3,101.5,31.7,100.8,31.6,100.6z"/>
	<path fill-rule="evenodd" clip-rule="evenodd" fill="#E9C20C" d="M123.6,85.2c-0.4,0.1,0.4-0.4,0.6-0.5
		C124.6,84.7,123.8,85.2,123.6,85.2z"/>
	<path fill-rule="evenodd" clip-rule="evenodd" fill="#E9C20C" d="M33.2,103.1c-0.2-0.4,0.5,0.3,0.6,0.5
		C33.9,103.9,33.3,103.3,33.2,103.1z"/>
	<path fill-rule="evenodd" clip-rule="evenodd" fill="#E9C20C" d="M90.4,102.3c-0.1-0.1,0.8-0.6,1.3-0.9
		C91.7,101.6,90.9,102,90.4,102.3z"/>
	<path fill-rule="evenodd" clip-rule="evenodd" fill="#E9C20C" d="M201.4,57.1c-0.6,0.3-0.9,0.7-0.5,0.9c-2.8,0.6-2,0.9-4.3,1.5
		C197.5,58.7,199.1,57.9,201.4,57.1z"/>
	<path fill-rule="evenodd" clip-rule="evenodd" fill="#E9C20C" d="M53.4,111.3c-2.2,2-3.8,3.8-5,5.6c-0.1-0.1-0.4,0-0.8,0.3l6.4,1.2
		c-0.4-1.2-1.6-3.4-1.8-4.5c0.3,0.3,0.7,0.6,1.1,1.2c0.6,1.1,0.9,2.2,1.2,3l-7.2-1.4c0.5-0.4,0.9-0.8,1.2-1.2
		c-0.5,0.4-0.9,0.7-1.4,1l7.6,1.4c-0.6-1.7-1-3.1-1.6-4.8c-0.3-0.8-0.6-1.8-1.1-2.8c-0.5-1-1.1-2.2-1.9-3.6c0-1-0.1-2.4-1.4-4.8
		c-0.2,0-0.4,0-1.1-1.2c-0.8-2-2.2-3.4-3.2-4.7c-0.5-0.6-0.4-0.9-0.8-1.4c-0.2-0.3-0.8-0.4-1.2-1.1c0-0.4-0.3-1-1.2-2.2
		c-1.1-1.1-2.6-2.7-3.6-3.3c1,1.7-1.7-0.7,0.8,2.5c0.4,0.1-0.4-1.2,0.4-0.3c0.5,0.6,0.7,0.7,1.1,1.2c0.8,2,2,4.4,1.3,5
		c0.6,0.9,0.8,1.5,1,2.2c0.2,0.6,0.5,1.3,1.2,2c0.2,1.2,0.4,2.4,2,5.2c-0.9-0.4,0.6,1.9,0,1.8c-1.5-2.5-1.5-3.2-1.9-4.3
		c-1.9-2.8-2.1-3.9-4.2-6.6c0.4-0.2-1.5-2.9-2-3.4c0-0.4-1.2-1.9-0.3-1.7c-1.7-2.4-1.5-1-2.9-2.7c-0.2-0.9-1.7-2.7-1.9-3.5
		c-0.2,0.1-0.8-0.7-0.4-0.7c-1.8-2.3-1.7-1.5-3.4-3.3c0-0.3-0.7-1.1-0.7-1.5c0.9,0.9,1.9,2,1.9,1.5c-1.2-1.7-1.7-1.7-3.1-3.6
		c-0.2,0-0.2,0.2-0.8-0.3c-2.2-2-2.6-2.6-4.1-3.7c-0.4-0.7-0.2-0.9-1.3-2.1c-0.9-0.6-5-3.4-2.4-0.9c0.1-0.5,1.2,0.3,2.7,1.8
		c-2.4-0.9,2.6,3,2.7,4c0.6,0.1,1.5,0.7,2.7,1.8c0.7,1.4-2.9-2.1-1.1,0c1.1,0.5,1.7,1.3,2.4,2.3c0.7,1,1.5,2.1,2.9,3.6
		c-1-0.4,0.5,1.2,0.6,1.6c-0.3,0.8-1.3,1.5-3.6-2c-0.2,0.2-0.7-0.2-1.4-0.8c-1.5-2.1-0.5-1.2-1.6-2.8c-1.6-1.8-1.5-1.1-2.4-1.9
		c0.3,0-0.5-1-1-1.2c1.2,1.2-1-0.4-0.5,0.6c-1.4-1.3-2.4-1.9-3.3-2.4c-0.9-0.5-1.6-0.8-2.6-1.3c-1.9-2-3.1-2.2-6.6-5.1
		c0.3-0.2,0.6-0.5-0.8-1.5c0.7,1.3-2,0.1,0.9,2.6c0.1,0.7-1.5-0.5-2.3-0.7c-1.9-1.9-3.6-2-5.2-2.8c1.3,1.3,5.7,4.2,7.4,6
		c-1-1.6,0.8-0.6,2.5,0.4c-1-0.7-0.4-1.4,0.5-0.6c0.9,1.2,2.2,2.6,4.1,4.5c1.5,1.4,1.5,0.7,3.1,2.2c0.8,0.1-0.5-1,0-1.1
		c0.9,1.3,1.4,1.4,2.3,2c0.8,0.9,1.5,1.7,2.2,2.5c0.6,0.8,1.2,1.6,1.6,2.3c-1.2-1.2-0.8,0.3-1.3,0.2c2,2.7,2.9,4.7,4.9,7.6
		c-0.2,0.1-0.8-0.6-0.8-0.3c1.6,1.8,2.3,2.3,4,4.4c-0.5,0.2-2.7-2.9-3.4-3c1.4,1.6,0.4,2.3,2.4,3.8c-0.4-0.7,0.2-0.1,1,0.8
		c0.8,0.9,1.7,2.1,2.1,2.4c-0.3-0.5-0.8-1.2-0.7-1.3c1.9,2.6,2,1.1,3.3,2.2c0.5,1.2,2,3.7,1.2,3.7c-1.4-1.9-0.7-1.7-1.4-2.7
		c-0.1,0.9-0.6,0.4-0.5,1.2c1.7,2.2,0.7,1.4,1.7,3.3c0.8,0.7,1.8,1.7,2.6,3c0.9,1.3,1.8,2.7,2.7,4.2c0.9,1.4,1.7,3,2.5,4.3
		c0.8,1.3,1.5,2.5,2.3,3.3c0,0,0,0,0,0l0.5,4l6.9-2.6c1-0.4,1.9-2,2.7-2.1c0.2,0.3-1.4,1.6-2.2,2.6l-4.5,5.1l-3.9-6.7
		c-0.4-0.6-0.7-1.2-0.9-1.2c0.3,0.6,0.5,1,0.6,1.4l2.4,6.4l6.5-4.7c1.1-0.8,1.3-0.5,3.3-2.3c0.5-0.9-1.8,0.7-0.4-0.5
		c0.7-0.3,1.3-0.6,2-0.9c1.3-2,2.5-3.9,4.8-6.2c0.8,0.2,4.3-2.3,7.3-4.1l0.2,0.3c1.6-0.9,1.3-1.1,3.2-2.1c-0.3,0.8,0.4,1.2,2.8,0.3
		c-0.4,0.1,0.4-0.3,0.7-0.4c0.4-0.1,0.5,0,1.4-0.6c-1.1,1,0,0.9,2.3-0.6c0-0.4-0.4-0.5-1-0.3c1.7-1.1,2.3-1.8,3.7-2.8
		c1.4-0.6,0.3,1.1,2.5-0.2c-0.7-0.5,0.3-0.8,1.8-1.4l-0.3-0.5c3-1.5,1.9-1.7,4.5-3c0.8-0.2,1.3-0.2,2.3-0.5
		c-0.6-0.4,3.9-2.1,4.8-2.3c1.3-1,2.7-1.7,4.1-2.1c-1.5-0.3,1.7-1.9,2.9-2.8c0.2,0,0.2,0.3,0.8-0.1c0.9-1-2.8,0.7-1-0.4
		c0.1,0.2,1.9-0.9,2.2-0.7c0,0.6,1.5,0,2.5-0.2c-0.5-0.5,1.4-0.8,2.7-1.5c0.1-0.2-0.1-0.3,0.6-0.6c1.9-0.6,2.3-1.4,4.8-2.4
		c2.4-0.5-0.9,1.8,0.7,1.4c1.7-1.6,2.3-2.9,4.6-4.6c2.5-1.4,3.3-1.3,4.2-1.9c-1.3,0.6,0.2-0.8,1.1-1.2c2.3-0.5,3.7-1.7,4.8-2.5
		c4.2-1.8,7-2.7,8.2-2.3c5-2.1,2.2-1.8,2.2-2.8c2.2-0.4,1.9-1,3.4-1.7c-0.1,0.4,2.1-0.7,2.3-0.4c-0.1,0.3-1.1,0.7-1.2,1
		c2.3-0.8,1.7-1.1,3.4-1.9c0.5,0.2,2.9-0.7,4.5-1.1c0-0.2-0.3-0.4,0.5-0.7c2.9-1.2,4.1-1.4,3.9-0.6c3.3-1.5,2-0.1,5.2-1.4
		c-1.3-0.2-2-0.2,0.3-1.4c1.5-0.5,0.9,0.3,2.4-0.2c0.1-0.2-0.3-0.4,0.6-0.7c1.4-0.3,3.8-1.1,4.5-0.9c0,0.3-1.8,0.8-1.3,0.9
		c3.8-1.5,2.5,0,6-1.4c0.6,0.4,3.3-0.4,4.7-0.4c1-0.2,0.3,0.5,1.6,0.1c0.7-1,7.7-2.9,6.9-3.3c0.9-0.3,1.1-0.1,2.2-0.5
		c-0.2-0.2,0.6-0.6,2.1-0.9c-0.3-0.6,3.6-1.6,4.9-2.3c1.8,0.2,4.1,0.2,8.4-0.6c0.1-0.2-0.2-0.4,0.6-0.6c1.7-0.3,2.3,0,3.1,0.1
		c-1.8,0.8-1.8,1.5-4.1,2.3c-2.6,0.7-3.1,1.3-4.9,2c3.3-0.6,3.5-1.5,5.8-1.5c0.6-0.4,1-0.7,2.8-1.1c-1.1-0.3,0.1-0.5-0.2-1.1
		c0.9-0.6,2.8-0.4,2.9-0.7c-1.9,0.1,1.8-1.1,1.2-1.5c1.4-0.3,1.8-0.7,3.6-1l-0.1-0.5c2.4-0.4,2.3-1.1,4.4-1.5
		c0.2,0.1,0.7,0.1,1.5-0.1c1.1-0.3,1.1-0.7,2.2-1.1c1.7,0,4-0.1,6.1-0.1c2.1,0,4.1,0.1,5.2,0.4c1.3-0.2,2-0.5,3.7-0.5
		c0.2-0.4-0.1-0.6-0.7-0.8c2.3-0.1,2.7-0.5,3.3-1c0.6-0.4,1.4-0.9,4.3-0.6c0.8-0.4,2.8-0.4,2.4-1.1c1.5,0.1,2.9,0.2,4.3,0.4
		c1.4,0.2,2.7,0.3,3.9,0.5c2.6,0.4,4.9,1,7.4,1.8c-1.1-0.5-0.5-0.6-0.5-0.9c-2.2-0.9-3.2-1.2-4.1-1.4c-0.9-0.3-1.8-0.4-3.7-0.9
		c-0.2-0.4-1.5-0.8-2.8-1.2c-1.4-0.3-2.9-0.7-3.3-1c-0.8,0.4-2.1-0.5-3.2-0.5c-0.3,0.1-2.2,0.5-2.4,0.1c0.7-0.2,2.3-0.2,1.7-0.8
		c-0.6-0.1-1.3-0.1-1.9-0.1c-0.6,0-1.2,0.1-1.6,0.1c-0.9,0.1-1.3,0.1-0.5-0.2c-1.5,0-2.4,0.2-3.2,0.3c-0.9,0.1-1.7,0.2-3.2,0.1
		c-0.2,0.1,0,0.3-0.8,0.3c-5.1,0-5,0.3-9.5,0.9c2-0.6-2.5-0.2-0.1-0.9c-1.9,0.1-2,0.4-3.9,0.8c0.1,0-0.8-0.1-1.6,0.1
		c-1.1,0.2-2.9,0.9-3.8,1.1c-3,0.6-5.9,1.2-10,2.1c-0.2-0.1-0.1-0.3-0.8-0.1c-0.1,0.3-1.7,0.5-2.3,0.5c0.1,0.9-5.5,1.9-8.1,2.9
		c-0.5-0.3-3,0.5-2.5-0.3c-4.5,1.1-9.3,1.6-12.1,3c0.6-0.8-2.9,0.6-2.5,0c1.3-0.5,2-0.4,2.2-0.7c-2.1,0.6-2.3,0.1-3.3,0
		c-2.4,0.7-3.3,1.2-2.8,1.6c1.5-0.4,1.4-0.7,2.1-1c-0.1,0.3,0.9,0.1,0.9,0.4c-1,0.3-2,0.6-3,1c1.1,0.4-2.1,1.4-1,1.8
		c-1.9,0.6-2.2,1-2.8,1.4c1.6-0.2,3.7-0.7,5.4-1c0.3,0.3,3,0,1.8,0.6c-3.1,0.6-5.2,1.5-8.8,2.9c0.5-0.7-1.3-0.1-1.7-0.2
		c-3.8,1.2-6.3,1.7-7.7,1.4c1.9-0.8,2.6-1.6,4.3-1.9c0-0.3-0.3-0.4-0.9-0.3c2.3-0.8,2.5-1.2,5.1-2c1.1-0.3,0.3,0.5,1.7,0.1
		c0.1-0.4,1.3-0.9,2-1.3c-2.4,0.4-1.1-1.1,1.3-1.1c0.7-0.7,0.2-0.5-1-0.5c-3.5,1.1-4.5,1.8-5.7,2.6c-0.4-0.1-1.1,0-2.3,0.5
		c-0.2-0.2-0.1-0.5-1.6,0.1c-1.1,0.6-1.7,1.2-1.9,1.7c2.4-0.7,1.4-0.9,2.8-1.5c-0.1,0.5,2.9-0.9,2.4-0.2c-0.2,0.3-0.8,0.6-2.1,1.1
		c0.4-0.3,1.5-1.2-0.9-0.2c-2.2,0.9,0.8,0.1,0.2,0.6c-2.8,1-2.7,1.5-5.1,1.9c-0.3-0.4,1.1-1.1,0.3-1.4c0.8-0.4,3.3-1.7,1.2-1.1
		c-1.5,1-5,2.3-7,3.5c-0.4,0-0.9,0-1.6,0.1c0.2,0.3-2.6,1.1-3.6,1.6c0,0.5,2.4,0.1-0.3,1.3c-1.8,0.6,0.2-1.3-1-0.3
		c-0.8,0.4-0.7,0.5-0.6,0.7c-3.2,1.3-4.1,2.4-7.9,3.2c-0.1-0.2,1.2-0.7,1.3-0.9c-5.5,2.4-11.9,5.8-18.1,9c-3.9,1.4-9.6,4.2-13.6,5.8
		c-1.2,0.7-0.9,1-1.8,1.6c-3.4,1.4-2.3,1.2-5.5,2.9c-0.1-0.1-0.6,0.1-0.8,0.1c1.3-0.8,1.5-2.3,0.6-2.4c0.2,0.6-0.4,0.3-1.4,0.7
		c0,0.2,0.3,0.3-0.5,0.8c-0.8-0.4,0.3-1.3-0.1-1.9c-2.4,1.5-0.7-0.3-2.3,0.6c-0.7,0.8-2.1,1.6-4,2.4c0,0.3,0.3,0.4-1.2,1.1
		c-1.8,0.3,1.3-1-0.4-0.7c-3,1.5-0.3,0.9-0.3,1.2c-1,0.5-1.5,0.9-2,1.2c0.2-0.3,0.7-0.7-0.2-0.4c-2.2,1.1-2.1,1.6-4.7,2.8
		c-0.3,0.4,1.2,0.3-0.3,1.1c-3.4,1.7-3.2,1.7-6.8,3.8c-0.9,0.9,0,1.3-2.1,2.6c-1.1,0-3.9,2.7-4.8,2.6l-0.2-0.3c4.2-2.2,5.3-4.1,4-4
		c-1.7,1.3-3.6,3.1-4.7,2.9c-0.8,0.7-0.6,1,0.4,0.7c-1.6,1-2.2,1.7-3,2.5c-4.7,2.8-4.3,3.7-8.1,6.3c-1.2,0.4-3.7,2-5.6,3
		c0.4-0.3,0.7-0.6-0.1-0.1C55.3,110.4,54.5,110.5,53.4,111.3z M147.5,63.1l3.6-1.4c0.4,0.4,1.8,0,2.6,0.2c1.2-0.7,1.9-1.4,2.6-2
		c2.1-0.5-0.7,1.1-0.3,1.4c-3.3,1.2-1.6,1.4-5.6,2.7c-0.8-0.3,1.1-1.2-0.3-0.9c-1.6,1.4-5.3,3.3-8.8,5.1c-0.8-0.3,0.4-0.9,1.8-1.6
		c-1.1,0.2-1.4-0.4-0.4-1c2.1-0.7-0.9,0.8,1,0.3c1.1-0.7,1.6-1.7,4.1-2.2L147.5,63.1z M50.3,111.4c-0.3-0.9,0-0.4,0.3,0.5
		c0.4,0.9,0.8,2.1,0.9,2.4c1,2,0.9,2.5,1.8,4.4l-5.3-1c0.1-0.1,0.3-0.3,0.6-0.6c0.6-0.1,1.5-0.7,2.9-1.7c-0.4,0.5-0.4,0.8-0.2,1
		c-1.1,1.1-1.5,1.3-2.3,2.2l3.1,0.6c-0.1-0.2-0.3-0.4-0.5-0.7c0.1,0.2,0.2,0.5,0.3,0.8l-2.8-0.5c1.3-1.2,3.3-3.4,3.8-4.1
		c1.5-1.1,2.5-1.6,4.5-3.1c-0.4,0.9-3.9,3.3-4.5,4.5c-1,0.7-1.4,1.1-1.8,1.5c-0.4,0.4-0.8,0.9-1.7,1.6l1.9,0.4c0,0,0,0,0,0
		c-0.1-0.6-0.4-1.4-0.8-2.2c0.5-0.2,1.5,1.7,1.8,0.9c-0.8-1.8-1.6-4.7-2-5.2C49.4,111.2,51.4,113.3,50.3,111.4z M115.9,77.8
		c1.1-0.4,1.7-0.4,1.7,0c-1.8,0.8-2.5,1-3.4,1.8C111.9,80.4,115.9,78.2,115.9,77.8z M209.2,44.1c-0.4,0,0.5-0.3,0.7-0.3
		C210.4,43.8,209.5,44.1,209.2,44.1z M246.8,40.6C249.4,40.4,244.8,41.1,246.8,40.6L246.8,40.6z M106.3,84.5c0-0.1,0.8-0.5,1.3-0.8
		C107.6,83.9,106.8,84.2,106.3,84.5z M108.3,83.4c0.5-0.2,0.9-0.5,1.4-0.7l0.1,0.3c-0.5,0.2-0.9,0.5-1.4,0.7L108.3,83.4z
		 M48.2,111.7c1.2,2,0.3,1.4,0.2,1.7c-0.6-1.2-0.6-1.5-1.4-2.8C47.4,110.9,48,112,48.2,111.7z M27.4,85.6l-0.5,0.4
		c-1-1-1.8-1.8-2.3-2c-1.4-1.6,0.3-0.4,1.3,0.9C26.2,84.9,25.9,83.8,27.4,85.6z M28.6,87.6c-0.2-0.4,0.5,0.3,0.6,0.5
		C29.5,88.4,28.8,87.8,28.6,87.6z M30.7,89.9c0.8,1.1,0.9,1.5,0.5,1.6C29.6,89.7,29.7,89.2,30.7,89.9z M46.1,112.8
		c1.1,2.4,2.1,4.8,1.6,5.2c-1.2-2.7-1.2-2.4-1.9-4.2c1,1.4,0.8,1.1,0.5,0.4C46,113.5,45.5,112.6,46.1,112.8z M27.3,86.7
		c-0.2-0.4,0.5,0.3,0.6,0.5C28.1,87.6,27.4,86.9,27.3,86.7z M176.3,58.2c0.1-0.2,0.7-0.3,0.7-0.2C176.9,58.2,176.3,58.3,176.3,58.2z
		 M22.6,81.7c1.7,1.5,1,2.1-0.3,0.3L22.6,81.7z M49.2,120.7C48.9,119.6,49.1,120.2,49.2,120.7l0.4,1.4l1.7-1c0.5-0.3,1-0.6,0,0
		l-1.7,1.1L49.2,120.7C49.2,120.7,49.2,120.7,49.2,120.7z M151.8,67.6c0.1-0.3,1.4-0.7,1.4-0.6C152.7,67.3,152.1,67.7,151.8,67.6z
		 M167.6,61.4c1.6-0.7,1.1-0.1,2.3-0.5C169.7,61.4,167.1,61.9,167.6,61.4z M139.2,73.1c1.2-0.2,3.1-0.9,5.8-2.1
		c0.4,0.7-2.6,1.2-5.5,2.7L139.2,73.1z M141.4,72.4c-0.4,0.1,0.4-0.4,0.6-0.4C142.4,71.9,141.6,72.3,141.4,72.4z M178.9,58.8
		c0.1-0.3,1.4-0.6,1.5-0.5C179.7,58.6,179.1,58.9,178.9,58.8z M122.7,81.5c-0.4,0.1,0.4-0.4,0.6-0.5
		C123.8,80.9,122.9,81.4,122.7,81.5z M138.8,74.2c0.7-0.2,1.3-0.4,1.4-0.6c1.1-0.6,1.4,0.2,0.2,0.6l-1.4,0.6L138.8,74.2z
		 M181.1,58.1c0.6-0.1,1.2-0.2,2.2-0.6c1.1,0.2-2.3,0.9-1.3,1.1C180.5,59.1,181.5,58.2,181.1,58.1z M177.6,59.7
		c0-0.2,0.8-0.4,1.4-0.6C179,59.2,178.1,59.5,177.6,59.7z M127.1,80c-0.4,0.1,0.4-0.4,0.6-0.5C128.1,79.4,127.3,80,127.1,80z
		 M206.2,51.5c-0.4,0,0.5-0.3,0.7-0.3C207.3,51.2,206.4,51.5,206.2,51.5z M63.2,114.6c-0.4,0.1,0.3-0.5,0.5-0.5
		C64.2,113.9,63.4,114.5,63.2,114.6z M36.1,102c0.3,0.4,0.6,0.8,0.8,1.2l-0.4,0.3c-0.2-0.6-0.5-1.1-1.1-1.9
		C35.6,101.6,35.9,102.1,36.1,102z M198.3,54.4c-0.4,0,0.5-0.3,0.7-0.4C199.4,54,198.5,54.4,198.3,54.4z M34.1,99.7
		c-0.2,0.3-0.8-0.2-1.7-1.6C33,98.7,33,98,34.1,99.7z M61.1,116.8c-0.4,0.2,0.3-0.5,0.5-0.6C62,116.1,61.3,116.7,61.1,116.8z
		 M89,99.8c0.4-0.2,0.9-0.5,1.3-0.7l0.1,0.3c-0.4,0.2-0.9,0.5-1.3,0.7L89,99.8z M194.7,55.5c0.3,0.3-0.9,0.8-2.8,1.3
		C191.8,56.4,193.3,55.6,194.7,55.5z"/>
	<path fill-rule="evenodd" clip-rule="evenodd" fill="#E9C20C" d="M37.6,90.4c0.2,0.4,0.7,1.1,1,1.7c0.4,0.6,0.6,1.1,0.4,1.2
		C38.7,92.3,37.1,90.5,37.6,90.4z"/>
	<path fill-rule="evenodd" clip-rule="evenodd" fill="#E9C20C" d="M10.2,67.9c0.8,0.7-0.1,0.2-0.8-0.2c-0.1,0.7-0.8,0.7-2,0.1
		c-1-1,0-1-0.6-1.8C8.4,67.1,9.1,67.3,10.2,67.9z"/>
	<path fill-rule="evenodd" clip-rule="evenodd" fill="#E9C20C" d="M166.6,65.4c1-1,1.6-0.2,3-0.7C169.2,65.2,167.3,65.2,166.6,65.4z
		"/>
	<path fill-rule="evenodd" clip-rule="evenodd" fill="#E9C20C" d="M102.1,95c1.8-0.9-0.8,0.7,0.3,0.6
		C100.7,96.4,101.9,95.2,102.1,95z"/>
	<path fill-rule="evenodd" clip-rule="evenodd" fill="#E9C20C" d="M98.2,97.4C100,96,96.5,98.8,98.2,97.4L98.2,97.4z"/>
	<path fill-rule="evenodd" clip-rule="evenodd" fill="#E9C20C" d="M201.3,56.8C203.4,55.8,199.4,57.8,201.3,56.8L201.3,56.8z"/>
</g>
</svg>
