<svg width="876" height="455.05" xmlns="http://www.w3.org/2000/svg">
 <!-- Created with Method Draw - http://github.com/duopixel/Method-Draw/ -->
 <g>
  <title>background</title>
  <rect fill="none" id="canvas_background" height="457.05" width="878" y="-1" x="-1"/>
 </g>
 <g>
  <title>Layer 1</title>
  <rect id="svg_6" height="34.2" width="276" y="14.975006" x="-0.5" stroke-opacity="null" stroke-width="0" stroke="null" fill="#f8f5e4"/>
  <rect id="svg_10" height="47.5" width="276" y="408.55" x="-0.5" stroke-opacity="null" stroke-width="0" stroke="null" fill="#cb0727"/>
  <rect id="svg_11" height="121.6" width="276" y="285.975006" x="-0.5" stroke-width="0" stroke="#fffef9" fill="none"/>
  <rect id="svg_12" height="34.2" width="276" y="251.975006" x="-0.5" stroke-opacity="null" stroke="null" fill="#f8f5e4"/>
  <rect id="svg_13" height="203.3" width="276" y="48.975006" x="-0.5" stroke-opacity="null" stroke-width="0" stroke="null" fill="#000000"/>
  <rect id="svg_14" height="47.5" width="276" y="407.55" x="300" stroke-opacity="null" stroke-width="0" stroke="null" fill="#cb0727"/>
  <rect id="svg_15" height="47.5" width="276" y="407.55" x="600" stroke-opacity="null" stroke-width="0" stroke="null" fill="#cb0727"/>
  <rect id="svg_16" height="34.2" width="276" y="251.975006" x="300" stroke-opacity="null" stroke-width="0" stroke="null" fill="#f8f5e4"/>
  <rect id="svg_17" height="34.2" width="276" y="251.975006" x="600" stroke-opacity="null" stroke-width="0" stroke="null" fill="#f8f5e4"/>
  <rect id="svg_18" height="34.2" width="276" y="14.975006" x="600" stroke-opacity="null" stroke-width="0" stroke="null" fill="#f8f5e4"/>
  <rect id="svg_19" height="34.2" width="276" y="14.975006" x="300" stroke-opacity="null" stroke-width="0" stroke="null" fill="#f8f5e4"/>
  <line stroke-linecap="null" stroke-linejoin="null" id="svg_21" y2="181.975006" x2="182.5" y1="83.975006" x1="52.5" stroke-opacity="null" stroke="null" fill="none"/>
  <text xml:space="preserve" text-anchor="start" font-family="Helvetica, Arial, sans-serif" font-size="24" id="svg_25" y="103.975006" x="105" stroke-opacity="null" stroke-width="0" stroke="null" fill="#ffffff">BILD</text>
  <rect fill-opacity="0.01" id="svg_26" height="121.6" width="276" y="285.975006" x="300" stroke-opacity="null" stroke-width="0" stroke="null" fill="#f8f5e3"/>
  <rect fill-opacity="0.01" id="svg_27" height="121.6" width="276" y="285.975006" x="600" stroke-opacity="null" stroke-width="0" stroke="null" fill="#f8f5e3"/>
  <rect id="svg_28" height="203.3" width="276" y="48.975006" x="300" stroke-opacity="null" stroke-width="0" stroke="null" fill="#000000"/>
  <rect id="svg_29" height="203.3" width="276" y="48.975006" x="600" stroke-opacity="null" stroke-width="0" stroke="null" fill="#000000"/>
  <text xml:space="preserve" text-anchor="start" font-family="Helvetica, Arial, sans-serif" font-size="24" id="svg_30" y="103.975006" x="411.324982" stroke-opacity="null" stroke-width="0" stroke="null" fill="#ffffff">BILD</text>
  <text xml:space="preserve" text-anchor="start" font-family="Helvetica, Arial, sans-serif" font-size="24" id="svg_31" y="103.975006" x="715.649994" stroke-opacity="null" stroke-width="0" stroke="null" fill="#ffffff">BILD</text>
  <text transform="matrix(0.560353, 0, 0, 0.737645, 12.9378, 10.528)" xml:space="preserve" text-anchor="start" font-family="Helvetica, Arial, sans-serif" font-size="24" id="svg_32" y="33.686337" x="44.72575" stroke-opacity="null" stroke-width="0" stroke="null" fill="#000000">rgb (248,245,228) 276x34,2px</text>
  <text transform="matrix(0.560353, 0, 0, 0.737645, 12.9378, 10.528)" xml:space="preserve" text-anchor="start" font-family="Helvetica, Arial, sans-serif" font-size="24" id="svg_33" y="33.686337" x="597.257244" stroke-opacity="null" stroke-width="0" stroke="null" fill="#000000">rgb (248,245,228) 276x34,2px</text>
  <text transform="matrix(0.560353, 0, 0, 0.737645, 12.9378, 10.528)" xml:space="preserve" text-anchor="start" font-family="Helvetica, Arial, sans-serif" font-size="24" id="svg_34" y="33.686337" x="1137.296546" stroke-opacity="null" stroke-width="0" stroke="null" fill="#000000">rgb (248,245,228) 276x34,2px</text>
  <text transform="matrix(0.560353, 0, 0, 0.737645, 12.9378, 10.528)" xml:space="preserve" text-anchor="start" font-family="Helvetica, Arial, sans-serif" font-size="24" id="svg_35" y="367.180111" x="1135.511956" stroke-opacity="null" stroke-width="0" stroke="null" fill="#000000">rgb (248,245,228) 276x34,2px</text>
  <text transform="matrix(0.560353, 0, 0, 0.737645, 12.9378, 10.528)" xml:space="preserve" text-anchor="start" font-family="Helvetica, Arial, sans-serif" font-size="24" id="svg_36" y="367.180111" x="597.257196" stroke-opacity="null" stroke-width="0" stroke="null" fill="#000000">rgb (248,245,228) 276x34,2px</text>
  <text transform="matrix(0.560353, 0, 0, 0.737645, 12.9378, 10.528)" xml:space="preserve" text-anchor="start" font-family="Helvetica, Arial, sans-serif" font-size="24" id="svg_37" y="367.180111" x="44.725768" stroke-opacity="null" stroke-width="0" stroke="null" fill="#000000">rgb (248,245,228) 276x34,2px</text>
  <text xml:space="preserve" text-anchor="start" font-family="Helvetica, Arial, sans-serif" font-size="24" id="svg_44" y="165.975006" x="65" stroke-opacity="null" stroke-width="0" stroke="null" fill="#ffffff">276x203,3px</text>
  <text xml:space="preserve" text-anchor="start" font-family="Helvetica, Arial, sans-serif" font-size="24" id="svg_45" y="165.975006" x="368.991669" stroke-opacity="null" stroke-width="0" stroke="null" fill="#ffffff">276x203,3px</text>
  <text xml:space="preserve" text-anchor="start" font-family="Helvetica, Arial, sans-serif" font-size="24" id="svg_46" y="165.975006" x="676.699982" stroke-opacity="null" stroke-width="0" stroke="null" fill="#ffffff">276x203,3px</text>
  <text transform="matrix(0.493365, 0, 0, 0.744114, 49.8035, 91.4324)" xml:space="preserve" text-anchor="start" font-family="Helvetica, Arial, sans-serif" font-size="24" id="svg_48" y="347.975006" x="-19.782689" stroke-width="0" stroke="#fffef9" fill="#000000">rgb(248,245,227,0.6) 276x121,6px</text>
  <text transform="matrix(0.493365, 0, 0, 0.744114, 49.8035, 91.4324)" xml:space="preserve" text-anchor="start" font-family="Helvetica, Arial, sans-serif" font-size="24" id="svg_49" y="347.975006" x="601.836574" stroke-width="0" stroke="#fffef9" fill="#000000">rgb(248,245,227,0.6) 276x121,6px</text>
  <text transform="matrix(0.493365, 0, 0, 0.744114, 49.8035, 91.4324)" xml:space="preserve" text-anchor="start" font-family="Helvetica, Arial, sans-serif" font-size="24" id="svg_50" y="347.975006" x="1211.382454" stroke-width="0" stroke="#fffef9" fill="#000000">rgb(248,245,227,0.6) 276x121,6px</text>
  <text transform="matrix(0.657859, 0, 0, 0.698419, 13.2609, 139.62)" xml:space="preserve" text-anchor="start" font-family="Helvetica, Arial, sans-serif" font-size="24" id="svg_52" y="425.08867" x="39.679052" fill-opacity="null" stroke-opacity="null" stroke-width="0" stroke="null" fill="#000000">rgb (203,7,39) 276x47,5px</text>
  <text transform="matrix(0.657859, 0, 0, 0.698419, 13.2609, 139.62)" xml:space="preserve" text-anchor="start" font-family="Helvetica, Arial, sans-serif" font-size="24" id="svg_53" y="425.08867" x="504.334387" fill-opacity="null" stroke-opacity="null" stroke-width="0" stroke="null" fill="#000000">rgb (203,7,39) 276x47,5px</text>
  <text transform="matrix(0.657859, 0, 0, 0.698419, 13.2609, 139.62)" xml:space="preserve" text-anchor="start" font-family="Helvetica, Arial, sans-serif" font-size="24" id="svg_54" y="425.08867" x="966.50301" fill-opacity="null" stroke-opacity="null" stroke-width="0" stroke="null" fill="#000000">rgb (203,7,39) 276x47,5px</text>
  <path id="svg_55" d="m294.590698,233.251617c0.514618,-0.678528 1.00708,-1.460571 1.440033,-2.16275l-12.986237,-0.322083l-1.781708,2.77446l-5.643646,-0.238129c0.707001,-1.263046 1.481934,-2.747467 2.056427,-3.862015l-2.042694,-3.74704l6.021271,0l1.224396,2.34137l13.25946,0l-1.644684,-2.33606c0.507843,-0.73645 1.259033,-1.718811 1.666077,-2.233871l4.459747,5.953995l-4.46936,6.046036l-1.559082,-2.213913l0,0z" stroke-opacity="null" stroke-width="0" stroke="null" fill="#cb0727"/>
  <text transform="rotate(-90, 287.84, 201.996) matrix(0.762302, 0, 0, 0.599362, 57.8666, 58.6815)" xml:space="preserve" text-anchor="start" font-family="Helvetica, Arial, sans-serif" font-size="24" id="svg_57" y="247.133542" x="275.407649" fill-opacity="null" stroke-opacity="null" stroke-width="0" stroke="null" fill="#000000">24px</text>
  <text transform="rotate(-90, 586.84, 201.994) matrix(0.762302, 0, 0, 0.599362, 57.8666, 58.6815)" xml:space="preserve" text-anchor="start" font-family="Helvetica, Arial, sans-serif" font-size="24" id="svg_58" y="247.133542" x="667.640651" fill-opacity="null" stroke-opacity="null" stroke-width="0" stroke="null" fill="#000000">24px</text>
  <path id="svg_59" d="m594.590698,233.251617c0.514648,-0.678528 1.00708,-1.460571 1.440063,-2.16275l-12.986267,-0.322083l-1.781677,2.77446l-5.643677,-0.238129c0.707031,-1.263046 1.481934,-2.747467 2.056396,-3.862015l-2.042664,-3.74704l6.021301,0l1.224365,2.34137l13.25946,0l-1.644714,-2.33606c0.507874,-0.73645 1.259033,-1.718811 1.666138,-2.233871l4.459717,5.953995l-4.46936,6.046036l-1.559082,-2.213913l0,0z" stroke-opacity="null" stroke-width="0" stroke="null" fill="#cb0727"/>
  <path transform="rotate(-90, 205.808, 8.59888)" id="svg_60" d="m209.741562,12.143009c0.312729,-0.635191 0.612015,-1.367287 0.875107,-2.024616l-7.891708,-0.301516l-1.082733,2.59726l-3.429642,-0.22292c0.429657,-1.182378 0.900558,-2.571988 1.249695,-3.615353l-1.241348,-3.507721l3.659119,0l0.744049,2.191829l8.05777,0l-0.999466,-2.186856c0.308594,-0.689415 0.765106,-1.609033 1.012466,-2.091198l2.71019,5.57372l-2.716034,5.659884l-0.947464,-2.072513l0,0z" stroke-opacity="null" stroke-width="0" stroke="null" fill="#cb0727"/>
  <text style="cursor: move;" transform="matrix(0.758101, 0, 0, 0.341357, 56.7509, 9.49749)" xml:space="preserve" text-anchor="start" font-family="Helvetica, Arial, sans-serif" font-size="24" id="svg_62" y="3.309099" x="210.254624" fill-opacity="null" stroke-opacity="null" stroke-width="0" stroke="null" fill="#000000">14,25px</text>
 </g>
</svg>